/* XPM */
static char * add_xpm[] = {
"18 18 7 1",
" 	c None",
".	c #000000",
"+	c #808080",
"@	c #808000",
"#	c #C0C0C0",
"$	c #FFFFFF",
"%	c #000080",
"  .               ",
"  ..              ",
"   ..             ",
"    ....          ",
"   .+@@#.....     ",
"...#$$@@#@+....   ",
"%.$$$$+.@++##...  ",
"%%$$$$#++.##$++.  ",
"%%...++++.+####.  ",
".....#$#$$+#$#+%  ",
"   .#$$$##$$#+%   ",
"   .#$$#$$##+%    ",
"   %++#$$$#+%     ",
"    .%++##+%      ",
"      .%++%       ",
"        ..        ",
"                  ",
"                  "};
