/* XPM */
static char * boy_xpm[] = {
"18 18 321 2",
"  	c None",
". 	c #0B7F8C",
"+ 	c #007B7F",
"@ 	c #00867D",
"# 	c #088977",
"$ 	c #1B7164",
"% 	c #1C453F",
"& 	c #0E070E",
"* 	c #17000A",
"= 	c #0B0009",
"- 	c #06000C",
"; 	c #000013",
"> 	c #000D22",
", 	c #2A4F61",
"' 	c #2E7F83",
") 	c #007E6E",
"! 	c #008979",
"~ 	c #008288",
"{ 	c #007E8D",
"] 	c #007A82",
"^ 	c #007A7E",
"/ 	c #006F64",
"( 	c #004038",
"_ 	c #001715",
": 	c #030004",
"< 	c #0B0002",
"[ 	c #040004",
"} 	c #1E1E26",
"| 	c #10121F",
"1 	c #000616",
"2 	c #001A29",
"3 	c #0F545B",
"4 	c #007D71",
"5 	c #049C8F",
"6 	c #008386",
"7 	c #007F8C",
"8 	c #008584",
"9 	c #038382",
"0 	c #138784",
"a 	c #005957",
"b 	c #001E24",
"c 	c #000309",
"d 	c #030002",
"e 	c #060503",
"f 	c #000F05",
"g 	c #000900",
"h 	c #000501",
"i 	c #020D0F",
"j 	c #000C16",
"k 	c #002128",
"l 	c #0B746F",
"m 	c #00746D",
"n 	c #00838A",
"o 	c #00887E",
"p 	c #007C77",
"q 	c #117376",
"r 	c #00353F",
"s 	c #000718",
"t 	c #05000C",
"u 	c #090307",
"v 	c #000400",
"w 	c #000D00",
"x 	c #092E0D",
"y 	c #000B00",
"z 	c #020500",
"A 	c #05060A",
"B 	c #00070E",
"C 	c #044F52",
"D 	c #148485",
"E 	c #008185",
"F 	c #008488",
"G 	c #008C79",
"H 	c #007B70",
"I 	c #146169",
"J 	c #001328",
"K 	c #070017",
"L 	c #12000C",
"M 	c #0F0506",
"N 	c #000700",
"O 	c #002100",
"P 	c #91BC87",
"Q 	c #ACB890",
"R 	c #3C361C",
"S 	c #F9E7E3",
"T 	c #3F4045",
"U 	c #194850",
"V 	c #10676E",
"W 	c #067D81",
"X 	c #008285",
"Y 	c #008C75",
"Z 	c #0A8072",
"` 	c #215D68",
" .	c #00021D",
"..	c #140017",
"+.	c #1C000C",
"@.	c #130000",
"#.	c #070900",
"$.	c #0C2800",
"%.	c #ACC689",
"&.	c #716E3B",
"*.	c #452F0A",
"=.	c #CBA99D",
"-.	c #584547",
";.	c #1C5C66",
">.	c #10797D",
",.	c #037F81",
"'.	c #007E66",
").	c #10796B",
"!.	c #245460",
"~.	c #00001B",
"{.	c #260024",
"].	c #24000D",
"^.	c #1B0000",
"/.	c #0A0400",
"(.	c #6F6528",
"_.	c #664710",
":.	c #6A3F15",
"<.	c #845541",
"[.	c #220501",
"}.	c #000207",
"|.	c #316269",
"1.	c #1B7478",
"2.	c #0D7B7C",
"3.	c #0B7D64",
"4.	c #207A6E",
"5.	c #315963",
"6.	c #100D28",
"7.	c #4C2749",
"8.	c #48102D",
"9.	c #300005",
"0.	c #2D0000",
"a.	c #72421C",
"b.	c #D39F6D",
"c.	c #FFC08D",
"d.	c #FCBD92",
"e.	c #F2BCA0",
"f.	c #67473A",
"g.	c #1B1B19",
"h.	c #0B3333",
"i.	c #1F7373",
"j.	c #107A78",
"k.	c #1F7A68",
"l.	c #226B60",
"m.	c #345B60",
"n.	c #000012",
"o.	c #361E36",
"p.	c #421127",
"q.	c #793540",
"r.	c #6E1B17",
"s.	c #7C1C06",
"t.	c #882402",
"u.	c #CA6841",
"v.	c #FFB690",
"w.	c #E4AE8C",
"x.	c #7A5E46",
"y.	c #262415",
"z.	c #002419",
"A.	c #076157",
"B.	c #0B7F74",
"C.	c #2E7668",
"D.	c #2C6961",
"E.	c #002224",
"F.	c #000D15",
"G.	c #070007",
"H.	c #190000",
"I.	c #520C16",
"J.	c #640104",
"K.	c #820500",
"L.	c #B22E1F",
"M.	c #921A02",
"N.	c #822506",
"O.	c #602A06",
"P.	c #4A3311",
"Q.	c #585739",
"R.	c #001B04",
"S.	c #002316",
"T.	c #107168",
"U.	c #2E6C61",
"V.	c #174A43",
"W.	c #133632",
"X.	c #536362",
"Y.	c #050505",
"Z.	c #6E5455",
"`.	c #602225",
" +	c #E18185",
".+	c #7B0000",
"++	c #8C0000",
"@+	c #7A0000",
"#+	c #7A1B07",
"$+	c #62300D",
"%+	c #A69569",
"&+	c #E8E7B9",
"*+	c #2C401B",
"=+	c #001209",
"-+	c #00191D",
";+	c #013D35",
">+	c #00170E",
",+	c #1A3732",
"'+	c #5B685F",
")+	c #23261B",
"!+	c #716358",
"~+	c #835852",
"{+	c #FFC5C9",
"]+	c #840E1E",
"^+	c #971223",
"/+	c #B33E44",
"(+	c #FFC6BC",
"_+	c #D4A786",
":+	c #FFFFCD",
"<+	c #DBD79A",
"[+	c #3A4815",
"}+	c #466858",
"|+	c #225050",
"1+	c #002A20",
"2+	c #002921",
"3+	c #1C3027",
"4+	c #636558",
"5+	c #B9B8A4",
"6+	c #5C5741",
"7+	c #FFF3E3",
"8+	c #EAC7C3",
"9+	c #590F1E",
"0+	c #8F3149",
"a+	c #E08597",
"b+	c #FFDADB",
"c+	c #FFF0D3",
"d+	c #AC9B65",
"e+	c #7B7227",
"f+	c #505F1C",
"g+	c #114C2C",
"h+	c #1E7161",
"i+	c #03564C",
"j+	c #00291F",
"k+	c #09150B",
"l+	c #6E6556",
"m+	c #948D73",
"n+	c #EEF1D2",
"o+	c #E4F4D9",
"p+	c #FCFFF6",
"q+	c #B99DAB",
"r+	c #DEA9C3",
"s+	c #FFE2FB",
"t+	c #FFE6EF",
"u+	c #FFF2D9",
"v+	c #8A753E",
"w+	c #D7C573",
"x+	c #D9E194",
"y+	c #3E7F57",
"z+	c #0C6851",
"A+	c #16786B",
"B+	c #1C5E52",
"C+	c #6A6D64",
"D+	c #A89181",
"E+	c #F5E4C8",
"F+	c #FFFFE1",
"G+	c #E4FFEC",
"H+	c #CFFFE9",
"I+	c #F0FFFF",
"J+	c #FFFBFF",
"K+	c #FFE1FD",
"L+	c #FFF2FF",
"M+	c #775B46",
"N+	c #9F864E",
"O+	c #DEC36A",
"P+	c #D5D07E",
"Q+	c #80AD86",
"R+	c #0D5240",
"S+	c #188278",
"T+	c #00483B",
"U+	c #7F8A79",
"V+	c #59472F",
"W+	c #988E6B",
"X+	c #B7C7A0",
"Y+	c #92CEAC",
"Z+	c #BAFFEE",
"`+	c #D0FFFF",
" @	c #D8F7FF",
".@	c #F8FEFF",
"+@	c #EAE4F0",
"@@	c #53503F",
"#@	c #C1BA8C",
"$@	c #DDCF84",
"%@	c #C6CC86",
"&@	c #44795B",
"*@	c #1D695F",
"=@	c #0D7679",
"-@	c #0B5C53",
";@	c #304F2F",
">@	c #B5BE93",
",@	c #AEB98E",
"'@	c #1E3C18",
")@	c #054431",
"!@	c #226F69",
"~@	c #256B6D",
"{@	c #2A676C",
"]@	c #3B6E72",
"^@	c #326060",
"/@	c #18463B",
"(@	c #456C51",
"_@	c #99B384",
":@	c #456E44",
"<@	c #1F7666",
"[@	c #0E7B78",
"}@	c #0E7981",
"|@	c #287E75",
"1@	c #214B25",
"2@	c #4D642E",
"3@	c #516738",
"4@	c #224725",
"5@	c #2F7167",
"6@	c #277778",
"7@	c #277577",
"8@	c #2A7676",
"9@	c #1C6461",
"0@	c #286F69",
"a@	c #30766E",
"b@	c #064333",
"c@	c #295637",
"d@	c #316C50",
"e@	c #127A71",
"f@	c #027F81",
". + @ # $ % & * = - ; > , ' ) ! ~ { ",
"] ^ @ / ( _ : < [ } | 1 2 3 4 5 6 7 ",
"8 9 0 a b c d e f g h i j k l m 6 n ",
"o p q r s t u v w x y z A B C D E F ",
"G H I J K L M N O P Q R S T U V W X ",
"Y Z `  ...+.@.#.$.%.&.*.=.-.j ;.>.,.",
"'.).!.~.{.].^.@./.(._.:.<.[.}.|.1.2.",
"3.4.5.6.7.8.9.0.a.b.c.d.e.f.g.h.i.j.",
"k.l.m.n.o.p.q.r.s.t.u.v.w.x.y.z.A.B.",
"C.D.E.F.G.H.I.J.K.L.M.N.O.P.Q.R.S.T.",
"U.V.W.X.Y.Z.`. +.+++@+#+$+%+&+*+=+-+",
";+>+,+'+)+!+~+{+]+^+/+(+_+:+<+[+}+|+",
"1+2+3+4+5+6+7+8+9+0+a+b+c+d+e+f+g+h+",
"i+j+k+l+m+n+o+p+q+r+s+t+u+v+w+x+y+z+",
"A+B+C+D+E+F+G+H+I+J+K+L+M+N+O+P+Q+R+",
"S+T+U+V+W+X+Y+Z+`+ @.@+@@@#@$@%@&@*@",
"=@-@;@>@,@'@)@!@~@{@]@^@/@(@_@:@<@[@",
"}@|@1@2@3@4@5@6@7@8@9@0@a@b@c@d@e@f@"};
