/* XPM */
static char * business_xpm[] = {
"48 48 813 2",
"  	c None",
". 	c #6F7063",
"+ 	c #5A5D4C",
"@ 	c #595A4F",
"# 	c #C5C6BA",
"$ 	c #ADAF93",
"% 	c #313624",
"& 	c #0C0D09",
"* 	c #5C5D4F",
"= 	c #B7B9A8",
"- 	c #BFC1AA",
"; 	c #758059",
"> 	c #5C6944",
", 	c #4C5637",
"' 	c #10130C",
") 	c #050503",
"! 	c #77776A",
"~ 	c #A5A793",
"{ 	c #BDC0A9",
"] 	c #858D67",
"^ 	c #55623E",
"/ 	c #25291A",
"( 	c #CACAC2",
"_ 	c #C0C3AF",
": 	c #959C7A",
"< 	c #5F6D45",
"[ 	c #636F48",
"} 	c #495233",
"| 	c #16180E",
"1 	c #595A4C",
"2 	c #D4D4C9",
"3 	c #D1D3C3",
"4 	c #89906A",
"5 	c #6A754C",
"6 	c #6F7B50",
"7 	c #616A45",
"8 	c #292F1D",
"9 	c #14160E",
"0 	c #2C2C22",
"a 	c #C2C4B3",
"b 	c #C7C8B3",
"c 	c #6E7A51",
"d 	c #647049",
"e 	c #737D52",
"f 	c #7A8358",
"g 	c #7A8459",
"h 	c #4D5536",
"i 	c #1F2417",
"j 	c #5D5F4F",
"k 	c #80836C",
"l 	c #10100C",
"m 	c #030302",
"n 	c #A3A494",
"o 	c #9FA37E",
"p 	c #707B50",
"q 	c #747E54",
"r 	c #7D865C",
"s 	c #828C61",
"t 	c #82895F",
"u 	c #636C49",
"v 	c #181B11",
"w 	c #090A06",
"x 	c #757664",
"y 	c #B0B29E",
"z 	c #C5C7B3",
"A 	c #616749",
"B 	c #545448",
"C 	c #B1B293",
"D 	c #7F8A5E",
"E 	c #828A61",
"F 	c #7B805E",
"G 	c #3E422E",
"H 	c #24271A",
"I 	c #070905",
"J 	c #929483",
"K 	c #B5B7A4",
"L 	c #C3C4AF",
"M 	c #9FA482",
"N 	c #6F7A54",
"O 	c #2F3621",
"P 	c #373731",
"Q 	c #B9B9A7",
"R 	c #989E75",
"S 	c #818B5F",
"T 	c #838D62",
"U 	c #818A61",
"V 	c #858C66",
"W 	c #13140D",
"X 	c #010101",
"Y 	c #9A9C8C",
"Z 	c #CACABD",
"` 	c #C5C6B2",
" .	c #9FA484",
"..	c #78845C",
"+.	c #626E47",
"@.	c #586340",
"#.	c #060703",
"$.	c #66675C",
"%.	c #C0C1B1",
"&.	c #AEB292",
"*.	c #848D62",
"=.	c #879167",
"-.	c #8C946A",
";.	c #878F64",
">.	c #6E7652",
",.	c #6A6C5E",
"'.	c #E5E6DF",
").	c #858D69",
"!.	c #6E7A54",
"~.	c #616E47",
"{.	c #475033",
"].	c #0E110A",
"^.	c #21211D",
"/.	c #9B9C8E",
"(.	c #C7C7B5",
"_.	c #A3A886",
":.	c #8A9369",
"<.	c #8E956C",
"[.	c #969B72",
"}.	c #979C73",
"|.	c #848A66",
"1.	c #020201",
"2.	c #969880",
"3.	c #8E956E",
"4.	c #5E6A45",
"5.	c #6D774F",
"6.	c #545E3D",
"7.	c #41492F",
"8.	c #5E6747",
"9.	c #858B67",
"0.	c #9DA37C",
"a.	c #959974",
"b.	c #90976D",
"c.	c #959A70",
"d.	c #979E74",
"e.	c #989F75",
"f.	c #9DA278",
"g.	c #989D76",
"h.	c #323525",
"i.	c #000000",
"j.	c #1A1B14",
"k.	c #BCBDA4",
"l.	c #707C54",
"m.	c #69754C",
"n.	c #7C855A",
"o.	c #7E875D",
"p.	c #818C61",
"q.	c #879066",
"r.	c #969974",
"s.	c #969A73",
"t.	c #979D74",
"u.	c #9EA37A",
"v.	c #A1A57D",
"w.	c #A0A47C",
"x.	c #9EA37B",
"y.	c #838863",
"z.	c #040402",
"A.	c #858770",
"B.	c #616350",
"C.	c #8B8E74",
"D.	c #A6AA89",
"E.	c #6F7850",
"F.	c #7F885E",
"G.	c #858F64",
"H.	c #969B74",
"I.	c #9CA07B",
"J.	c #9BA078",
"K.	c #A0A57D",
"L.	c #A3A77F",
"M.	c #A5A982",
"N.	c #A8AB84",
"O.	c #A8AD86",
"P.	c #A4A881",
"Q.	c #50543B",
"R.	c #C3C4B8",
"S.	c #D9DACD",
"T.	c #5F664B",
"U.	c #4C5458",
"V.	c #32352E",
"W.	c #BEC0A6",
"X.	c #91976F",
"Y.	c #7B835A",
"Z.	c #8B9369",
"`.	c #8D956C",
" +	c #93986E",
".+	c #9CA17A",
"++	c #9FA581",
"@+	c #A3A781",
"#+	c #A2A77F",
"$+	c #A8AC85",
"%+	c #ABAE88",
"&+	c #AEB28C",
"*+	c #B2B48F",
"=+	c #B5B793",
"-+	c #ACAD89",
";+	c #54573D",
">+	c #0F0F0B",
",+	c #84847B",
"'+	c #F0F0EB",
")+	c #D0D2BD",
"!+	c #727858",
"~+	c #22241A",
"{+	c #505659",
"]+	c #7B8083",
"^+	c #979EA2",
"/+	c #AFBBC1",
"(+	c #C8D6DE",
"_+	c #CCDBE2",
":+	c #C8D7DE",
"<+	c #727C81",
"[+	c #868873",
"}+	c #B2B497",
"|+	c #838C61",
"1+	c #848E63",
"2+	c #969D72",
"3+	c #9DA37A",
"4+	c #A6AB86",
"5+	c #A6AA85",
"6+	c #B6B896",
"7+	c #BABD99",
"8+	c #BBBD9C",
"9+	c #B7B998",
"0+	c #ADB090",
"a+	c #C6C7AD",
"b+	c #D0D1B9",
"c+	c #C8CAAE",
"d+	c #ACAF8D",
"e+	c #474C35",
"f+	c #070706",
"g+	c #D4DEE4",
"h+	c #CCDBE3",
"i+	c #C9D9E1",
"j+	c #C8D8E1",
"k+	c #BACFDB",
"l+	c #97B7C9",
"m+	c #86A9C1",
"n+	c #5C7A92",
"o+	c #4A5659",
"p+	c #CACBB8",
"q+	c #ABAE8C",
"r+	c #8F976C",
"s+	c #939A6E",
"t+	c #A3A880",
"u+	c #A7AB86",
"v+	c #ABAF8D",
"w+	c #ADB08C",
"x+	c #B2B590",
"y+	c #B7B996",
"z+	c #BDBE9D",
"A+	c #BFC0A1",
"B+	c #C1C3A3",
"C+	c #C4C5A8",
"D+	c #C6C7AA",
"E+	c #C9CAAD",
"F+	c #CBCDB2",
"G+	c #CDCEB5",
"H+	c #CACBB0",
"I+	c #919674",
"J+	c #282B1E",
"K+	c #D8E1E6",
"L+	c #B2CAD6",
"M+	c #8EAEC4",
"N+	c #8AABC2",
"O+	c #89ABC3",
"P+	c #87AAC2",
"Q+	c #7E9EB8",
"R+	c #526D87",
"S+	c #252F36",
"T+	c #929380",
"U+	c #CACBB5",
"V+	c #9DA27B",
"W+	c #A9AD86",
"X+	c #B0B493",
"Y+	c #B3B694",
"Z+	c #C0C2A3",
"`+	c #C4C6A7",
" @	c #C8CAAD",
".@	c #D0D0B7",
"+@	c #D2D2BA",
"@@	c #D3D4BD",
"#@	c #C5C7AB",
"$@	c #565C42",
"%@	c #060605",
"&@	c #BBC1C4",
"*@	c #B1C8D5",
"=@	c #85A9C0",
"-@	c #7897AC",
";@	c #667F8F",
">@	c #5D7482",
",@	c #3E5060",
"'@	c #1D2423",
")@	c #878A75",
"!@	c #CFD0BB",
"~@	c #A3A882",
"{@	c #9FA47C",
"]@	c #ACAF89",
"^@	c #B2B694",
"/@	c #B7BA9A",
"(@	c #B8BB99",
"_@	c #CBCCB1",
":@	c #CDCDB4",
"<@	c #CFD0B7",
"[@	c #D1D2BA",
"}@	c #D4D4BE",
"|@	c #D6D6C0",
"1@	c #D8D8C4",
"2@	c #D8D9C4",
"3@	c #8F9373",
"4@	c #1D1F16",
"5@	c #9B9E9F",
"6@	c #D3DFE6",
"7@	c #80A1B8",
"8@	c #708287",
"9@	c #AAB0A3",
"0@	c #A2A993",
"a@	c #A9AE9C",
"b@	c #A1A58C",
"c@	c #B6B79C",
"d@	c #AFB28E",
"e@	c #B5B795",
"f@	c #B8BB9B",
"g@	c #BBBFA1",
"h@	c #BCBE9E",
"i@	c #BEC09F",
"j@	c #C0C3A3",
"k@	c #C3C5A6",
"l@	c #C7CAAD",
"m@	c #CACAAF",
"n@	c #CFD0B6",
"o@	c #D1D2B9",
"p@	c #D5D6C0",
"q@	c #DADBC7",
"r@	c #DCDCC9",
"s@	c #DDDECB",
"t@	c #CFD0B9",
"u@	c #494D39",
"v@	c #7A7B7C",
"w@	c #DEE7EC",
"x@	c #88A9C0",
"y@	c #7D9BB3",
"z@	c #9DACAB",
"A@	c #E0E1D4",
"B@	c #ADB28E",
"C@	c #A8AB86",
"D@	c #A6AA83",
"E@	c #BDC0A0",
"F@	c #C0C2A6",
"G@	c #C1C3A5",
"H@	c #C3C4A6",
"I@	c #CBCCB2",
"J@	c #D3D3BD",
"K@	c #D0D1BB",
"L@	c #AEB191",
"M@	c #B5B899",
"N@	c #DDDECE",
"O@	c #E4E4D6",
"P@	c #DCDCCA",
"Q@	c #DEDECD",
"R@	c #DFDFCE",
"S@	c #E1E1D1",
"T@	c #ECECE2",
"U@	c #505440",
"V@	c #555556",
"W@	c #E2EAEE",
"X@	c #95B5C7",
"Y@	c #87A8C2",
"Z@	c #7C9DB3",
"`@	c #8B999B",
" #	c #ADB18F",
".#	c #A7AB84",
"+#	c #AEB18B",
"@#	c #C2C4A6",
"##	c #BDBEA4",
"$#	c #878C68",
"%#	c #2F3326",
"&#	c #141915",
"*#	c #080A0A",
"=#	c #BBBBB3",
"-#	c #ECECE6",
";#	c #E3E3D5",
">#	c #E0E1D0",
",#	c #EAEAE1",
"'#	c #DCDDD3",
")#	c #61644C",
"!#	c #4C4F3D",
"~#	c #DCE6EC",
"{#	c #ACC2D2",
"]#	c #84A7C0",
"^#	c #7D9FB7",
"/#	c #5D6F79",
"(#	c #C8CBC0",
"_#	c #C4C6AC",
":#	c #51583C",
"<#	c #4B5036",
"[#	c #B8BBA0",
"}#	c #C4C6A8",
"|#	c #C0C1A2",
"1#	c #C7C8AD",
"2#	c #CACBB2",
"3#	c #969978",
"4#	c #15160F",
"5#	c #050504",
"6#	c #0C1115",
"7#	c #18212A",
"8#	c #050607",
"9#	c #030303",
"0#	c #585853",
"a#	c #F3F3EF",
"b#	c #EAEADF",
"c#	c #E4E5D7",
"d#	c #EAEBE0",
"e#	c #EAEBE3",
"f#	c #D6D6CD",
"g#	c #979884",
"h#	c #161611",
"i#	c #C1CDD3",
"j#	c #A7C0D0",
"k#	c #87A9C1",
"l#	c #80A3BC",
"m#	c #627B8E",
"n#	c #8A918C",
"o#	c #E1E2D7",
"p#	c #C1C4A6",
"q#	c #A5A984",
"r#	c #4F553A",
"s#	c #131715",
"t#	c #191F23",
"u#	c #C8C9C1",
"v#	c #E4E4D9",
"w#	c #C5C6A8",
"x#	c #C7C8AB",
"y#	c #D4D5BF",
"z#	c #BEC0A3",
"A#	c #25281B",
"B#	c #020202",
"C#	c #040404",
"D#	c #6D6E66",
"E#	c #F0F1EC",
"F#	c #F2F2EC",
"G#	c #EEEEE7",
"H#	c #CCCDC0",
"I#	c #979A86",
"J#	c #37392C",
"K#	c #11110D",
"L#	c #5A5B5B",
"M#	c #8D9091",
"N#	c #626364",
"O#	c #949FA6",
"P#	c #A2BCCE",
"Q#	c #84A7BF",
"R#	c #82A6BF",
"S#	c #82A5BF",
"T#	c #7699B0",
"U#	c #465864",
"V#	c #AAACA2",
"W#	c #868B6C",
"X#	c #212623",
"Y#	c #2E3A44",
"Z#	c #3A4C5A",
"`#	c #505656",
" $	c #D6D6C4",
".$	c #C7C7AA",
"+$	c #CCCDB2",
"@$	c #D7D8C4",
"#$	c #6C6D60",
"$$	c #DADBD0",
"%$	c #BCBEAD",
"&$	c #91957E",
"*$	c #38392D",
"=$	c #797979",
"-$	c #DEE2E4",
";$	c #E3EAEF",
">$	c #B6C2C9",
",$	c #ABB5BB",
"'$	c #A0BAC9",
")$	c #92B0C5",
"!$	c #82A3BE",
"~$	c #7EA1BC",
"{$	c #6D8DA4",
"]$	c #33424C",
"^$	c #707260",
"/$	c #5B6153",
"($	c #2E3B45",
"_$	c #485C6E",
":$	c #546E82",
"<$	c #3F505E",
"[$	c #CCCDC7",
"}$	c #E7E8DD",
"|$	c #CECFB5",
"1$	c #D6D7C1",
"2$	c #BDC0A2",
"3$	c #2E3324",
"4$	c #44463C",
"5$	c #34362A",
"6$	c #080806",
"7$	c #A9AAAB",
"8$	c #C3D5DF",
"9$	c #8CADC2",
"0$	c #91B1C5",
"a$	c #89ABC2",
"b$	c #8CACC3",
"c$	c #8BACC2",
"d$	c #7FA3BE",
"e$	c #7EA2BD",
"f$	c #7D9FBB",
"g$	c #6F90A9",
"h$	c #475C6C",
"i$	c #485D6E",
"j$	c #51687C",
"k$	c #5A778C",
"l$	c #64829D",
"m$	c #5C7992",
"n$	c #6B757A",
"o$	c #F2F2EE",
"p$	c #E2E3D5",
"q$	c #D9D9C4",
"r$	c #DADBC8",
"s$	c #23241A",
"t$	c #090B06",
"u$	c #53575A",
"v$	c #6C7B85",
"w$	c #6B6B6B",
"x$	c #A1BCCC",
"y$	c #88ABC2",
"z$	c #85A8C1",
"A$	c #85A8C0",
"B$	c #7EA1BB",
"C$	c #7B9FBB",
"D$	c #789CB6",
"E$	c #7395AE",
"F$	c #6C8BA6",
"G$	c #66879F",
"H$	c #6888A3",
"I$	c #6C8EAC",
"J$	c #6C8EAB",
"K$	c #4E6374",
"L$	c #CBCECD",
"M$	c #EFEFE8",
"N$	c #E2E2D3",
"O$	c #E6E7DA",
"P$	c #95977D",
"Q$	c #1C1E15",
"R$	c #131511",
"S$	c #6F7980",
"T$	c #5C7790",
"U$	c #435E80",
"V$	c #141C26",
"W$	c #DBE5EA",
"X$	c #91B2C6",
"Y$	c #83A6BF",
"Z$	c #83A7C0",
"`$	c #7A9EB9",
" %	c #7A9CB9",
".%	c #779BB6",
"+%	c #7596B3",
"@%	c #7092AF",
"#%	c #6F92B0",
"$%	c #7193B1",
"%%	c #6E93B1",
"&%	c #5B7792",
"*%	c #859095",
"=%	c #F2F2F0",
"-%	c #E3E4D6",
";%	c #DFE0CF",
">%	c #E5E6D8",
",%	c #EDEDE5",
"'%	c #D9D9CA",
")%	c #646855",
"!%	c #1D2019",
"~%	c #33383B",
"{%	c #69777F",
"]%	c #3D5472",
"^%	c #466183",
"/%	c #273747",
"(%	c #D0D8DE",
"_%	c #799DB9",
":%	c #769BB9",
"<%	c #7598B6",
"[%	c #7298B5",
"}%	c #7294B3",
"|%	c #7095B4",
"1%	c #7092B3",
"2%	c #698CAA",
"3%	c #D9DCDD",
"4%	c #F3F3EE",
"5%	c #ECEDE4",
"6%	c #E4E5D9",
"7%	c #B5B8A0",
"8%	c #50553E",
"9%	c #1D2529",
"0%	c #283645",
"a%	c #364A60",
"b%	c #445C79",
"c%	c #3F5776",
"d%	c #435D80",
"e%	c #394E67",
"f%	c #AAB3B7",
"g%	c #9FB8C9",
"h%	c #83A6C0",
"i%	c #7FA2BC",
"j%	c #7699B7",
"k%	c #7399B6",
"l%	c #7397B6",
"m%	c #7396B4",
"n%	c #6F91B3",
"o%	c #6C8FAF",
"p%	c #597791",
"q%	c #868F93",
"r%	c #F6F7F4",
"s%	c #C0C2A9",
"t%	c #5A5F49",
"u%	c #222827",
"v%	c #2A3847",
"w%	c #36495F",
"x%	c #415870",
"y%	c #476180",
"z%	c #4F6C8B",
"A%	c #506D93",
"B%	c #425E81",
"C%	c #456180",
"D%	c #4C4D4E",
"E%	c #8B99A3",
"F%	c #7A9DB7",
"G%	c #7C9EB8",
"H%	c #698CA7",
"I%	c #6888A5",
"J%	c #6F90AD",
"K%	c #6D91B1",
"L%	c #6689A9",
"M%	c #3F5568",
"N%	c #D4D7D6",
"O%	c #737C67",
"P%	c #20272A",
"Q%	c #2C3D4D",
"R%	c #3C5168",
"S%	c #415973",
"T%	c #4A6785",
"U%	c #516F90",
"V%	c #557599",
"W%	c #597A9D",
"X%	c #58789F",
"Y%	c #435F86",
"Z%	c #486589",
"`%	c #7D8083",
" &	c #B4C1CA",
".&	c #728EA4",
"+&	c #567490",
"@&	c #090B0F",
"#&	c #161B1F",
"$&	c #ADC6D3",
"%&	c #769BB7",
"&&	c #7395B6",
"*&	c #678DAD",
"=&	c #5A7A96",
"-&	c #465662",
";&	c #3B4F62",
">&	c #455C75",
",&	c #466079",
"'&	c #4C6883",
")&	c #506F8F",
"!&	c #567699",
"~&	c #59799E",
"{&	c #5B7CA0",
"]&	c #5A7DA1",
"^&	c #5A7AA2",
"/&	c #446084",
"(&	c #0A0E13",
"_&	c #080A0C",
":&	c #626567",
"<&	c #373C3F",
"[&	c #07090C",
"}&	c #D6E0E8",
"|&	c #C7D7E0",
"1&	c #6F94B4",
"2&	c #6F94B2",
"3&	c #6D90B0",
"4&	c #6587A7",
"5&	c #5E7E9E",
"6&	c #5A799C",
"7&	c #587595",
"8&	c #547191",
"9&	c #557394",
"0&	c #577698",
"a&	c #597A9F",
"b&	c #5B7CA2",
"c&	c #5A7DA2",
"d&	c #4A688D",
"e&	c #435E83",
"f&	c #1A2531",
"g&	c #CED8DE",
"h&	c #D0DCE5",
"i&	c #799AB7",
"j&	c #6F93B3",
"k&	c #6A8FAF",
"l&	c #557596",
"m&	c #516E90",
"n&	c #4E6A8B",
"o&	c #4D698C",
"p&	c #4E6A8E",
"q&	c #7D9CB5",
"r&	c #7493AF",
"s&	c #5C7CA0",
"t&	c #5B7EA4",
"u&	c #5D7FA5",
"v&	c #5B7EA3",
"w&	c #587AA0",
"x&	c #57799F",
"y&	c #27374A",
"z&	c #AAB3B8",
"A&	c #7093B4",
"B&	c #6A8FAE",
"C&	c #466281",
"D&	c #3A506F",
"E&	c #2B3D52",
"F&	c #1D2937",
"G&	c #18222D",
"H&	c #222D3D",
"I&	c #758999",
"J&	c #99B2C4",
"K&	c #7999B7",
"L&	c #5E81A7",
"M&	c #5D7FA6",
"N&	c #2E4059",
"O&	c #7E898E",
"P&	c #D6E1E8",
"Q&	c #7598B7",
"R&	c #7394B4",
"S&	c #587A9B",
"T&	c #394E69",
"U&	c #171F29",
"V&	c #0B0E11",
"W&	c #3E4346",
"X&	c #9DACB6",
"Y&	c #8CAAC2",
"Z&	c #466286",
"`&	c #3B5374",
" *	c #525E64",
".*	c #D8E2E8",
"+*	c #91AEC3",
"@*	c #6A8FB1",
"#*	c #2B3B4F",
"$*	c #050505",
"%*	c #121212",
"&*	c #B1C5D1",
"**	c #89A8C0",
"=*	c #5B7EA7",
"-*	c #4B6A8F",
";*	c #3F5879",
">*	c #3C5273",
",*	c #020304",
"'*	c #263139",
")*	c #AEC6D3",
"!*	c #6A8FB0",
"~*	c #58779C",
"{*	c #3A4F6D",
"]*	c #000101",
"^*	c #CED4D9",
"/*	c #9AB4C8",
"(*	c #507097",
"_*	c #466388",
":*	c #446284",
"<*	c #0F141B",
"[*	c #C9D8E0",
"}*	c #668AAC",
"|*	c #446081",
"1*	c #0A0D11",
"2*	c #C5CDD3",
"3*	c #8FABC2",
"4*	c #6C8DAC",
"5*	c #435D81",
"6*	c #405C7C",
"7*	c #364C69",
"8*	c #2E4158",
"9*	c #212E3C",
"0*	c #10161D",
"a*	c #C0CAD0",
"b*	c #688DAE",
"c*	c #6084A7",
"d*	c #527194",
"e*	c #506F93",
"f*	c #1A232C",
"g*	c #252525",
"h*	c #87939B",
"i*	c #496587",
"j*	c #26364B",
"k*	c #1D2A39",
"l*	c #151D27",
"m*	c #06090B",
"n*	c #9EA6AC",
"o*	c #D3DEE6",
"p*	c #6388A9",
"q*	c #577799",
"r*	c #527293",
"s*	c #4F6D8F",
"t*	c #4F6C8F",
"u*	c #4D6A8D",
"v*	c #32465B",
"w*	c #0C0D0D",
"x*	c #737C82",
"y*	c #CBD7DE",
"z*	c #557396",
"A*	c #537093",
"B*	c #4E6D8C",
"C*	c #3F5672",
"D*	c #33465A",
"E*	c #273443",
"F*	c #141B22",
"G*	c #030405",
"H*	c #36424A",
"I*	c #72818F",
"J*	c #293A49",
"K*	c #1D2730",
"L*	c #090C0F",
"                                                                  . +                           ",
"                                                              @ # $ % &                         ",
"                                                          * = - ; > , ' )                       ",
"                                                      ! ~ { ] > > > ^ / &                       ",
"                                                    ( _ : > > > > < [ } | )                     ",
"                                                  1 2 3 4 > > < [ 5 6 7 8 9                     ",
"                                                    0 a b c d 5 6 e f g h i )                   ",
"                                      j k l           m n o p q f r s t u v w                   ",
"                                  x y z A '             B C f r D E F G H I m                   ",
"                              J K L M N O w           P Q R S T U V W X X                       ",
"                          Y Z `  ...+.@.O #.        $.%.&.*.=.-.;.>.X                           ",
"                        ,.'.).!.~.> > > {.].X   ^./.(._.:.-.<.[.}.|.1.                          ",
"                          2.3.> > 4.d 5 5.6.7.8.9.0.a.<.b.c.d.e.f.g.h.i.                        ",
"                          j.k.l.d m.6 q f n.o.p.q.<.r.s.t.e.u.v.w.x.y.z.        A.B.            ",
"                            C.D.E.q f n.F.p.G.:.b.H.I.J.u.K.L.M.N.O.P.Q.m     R.S.T.W           ",
"                          U.V.W.X.Y.F.U G.Z.`. +t..+++@+#+M.$+%+&+*+=+-+;+>+,+'+)+!+~+          ",
"              {+]+^+/+(+_+:+<+[+}+|+1+Z.<. +2+d.3+@+4+5+$+%+&+*+=+6+7+8+9+0+a+b+c+d+e+f+        ",
"          g+h+h+h+i+j+k+l+m+n+o+p+q+r+s+2+e.3+v.t+u+v+w+&+x+=+y+7+z+A+B+C+D+E+F+G+H+I+J+        ",
"          K+L+M+N+N+O+P+m+Q+R+S+T+U+V+e.u.v.#+M.W+w+X+Y+=+y+7+z+A+Z+`+D+ @F+G+.@+@@@#@$@%@      ",
"          &@*@N+N+N+=@-@;@>@,@'@)@!@~@{@L.M.$+]@&+^@/@(@7+8+A+Z+C+D+c+_@:@<@[@}@|@1@2@3@4@      ",
"          5@6@N+O+O+7@8@9@0@a@b@c@d@t+M.$+%+&+*+e@f@g@h@i@j@k@D+l@m@:@n@o@@@p@1@q@r@s@t@u@w     ",
"          v@w@x@O+P+y@z@A@B@u+C@C@D@$+%+&+*+=+6+7+E@F@G@H@I@J@K@L@M@N@O@P@1@q@r@Q@R@S@T@U@w     ",
"          V@W@X@O+Y@Z@`@S. #t+M..#t+D@+#=+y+7+z+A+@##@c+K@##$#%#&#*#%@=#-#;#Q@>#O@,#-#'#)#!#)   ",
"            ~#{#]#Y@^#/#(#_#W+W+s.:#<#[#}#z+A+|#}#1#2#b+3#4#5#6#7#8#9#0#a#b#c#d#e#f#g#h.h#      ",
"            i#j#k#]#l#m#n#o#p#q#r#s#t#u#v#Z+k@w#x#H+y#z#A#1.X X B#C#  D#E#F#G#H#I#J#K#          ",
"    L#M#N#i.O#P#Q#R#S#T#U#V#v#W#X#Y#Z#`#'+ $.$m@+$<@@$0+9 X X         #$$$%$&$*$&               ",
"  =$-$;$>$,$'$)$Q#S#!$~${$]$^$/$($_$:$<$[$}$+$|$o@@@1$2$3$1.X           4$5$6$                  ",
"  7$8$9$0$a$b$c$S#!$d$e$f$g$h$i$j$k$l$m$n$o$p$@@|@q$r$r@ .s$t$X u$v$i.                          ",
"w$w@x$y$z$A$S#R#S#!$e$B$C$D$E$F$G$H$I$J$K$L$M$q@q@r@Q@N$O$P$Q$R$S$T$U$V$                        ",
"  W$X$z$A$Y$Z$S#!$d$B$C$`$ %.%+%@%#%$%%%&%*%=%-%s@;%>%,%'%)%!%~%{%]%^%/%                        ",
"  (%P+P+]#Z$S#d$d$e$B$`$ %_%:%<%[%}%|%1%2%i$3%4%;#5%6%7%8%9%0%a%b%c%d%e%i.                      ",
"  f%g%]#]#h%d$i%e$B$C$`$_%:%j%k%l%m%|%n%o%p%q%r%T@s%t%u%v%w%x%y%z%A%B%C%i.                      ",
"  D%E%F%G%H%I%J%h%C$`$ %_%:%k%l%m%|%1%n%K%L%M%N%O%P%Q%R%S%T%U%V%W%X%Y%Z%i.                      ",
"    `% &.&+&@&#&w@$& %_%%&j%k%&&|%1%n%K%K%*&=&-&;&>&,&'&)&!&~&{&]&^&/&/&(&                      ",
"    _&:&]+<&i.[&}&|& %%&j%k%l%m%1&n%K%2&3&4&5&6&7&8&9&0&a&b&]&c&^&^&d&e&f&                      ",
"              B#g&h&i&j%l%l%m%|%j&K%k&l&m&n&o&p&q&r&s&t&u&c&v&^&^&w&x&e&y&B#                    ",
"                z&}&%&k%l%m%A&j&K%B&C&D&E&F&G&H&I&J&K&L&M&v&v&w&w&w&w&/&N&X                     ",
"                O&P&Q&l%l%R&j&K%K%S&T&U&X 9#9#V&W&X&Y&M&v&v&^&w&w&w&w&Z&`&i.                    ",
"                 *.*+*l%m%1%j&K%@*l&#*i.$*      %*&***=*c&^&w&w&w&x&-*;*>*,*                    ",
"                '*P&)*|%1%j&K%K%!*~*{*]*B#      ^*/*M&v&^&(*_*/&/&e&e&:*_*<*                    ",
"                  6@[*1%j&K%K%!*!*}*|*;*1*      2*3*4*5*/&e&/&6*7*8*9*0*,*i.                    ",
"                  a*h&1%K%K%!*!*b*c*d*e*f*      g*h*i*j*k*l*m*i.X B#B#                          ",
"                  n*o*n%p*q*l&r*s*t*u*v*w*        i.i.i.X                                       ",
"                  x*y*l&z*A*B*C*D*E*F*G*C#                                                      ",
"                  H*I*J*K*L*i.i.X 9#                                                            ",
"                    i.B#                                                                        ",
"                                                                                                ",
"                                                                                                "};
