/* XPM */
static char * cancel_xpm[] = {
"19 19 3 1",
" 	c None",
".	c #000000",
"+	c #FF0000",
"                   ",
"      ......   ++  ",
"    ..........+++  ",
"   ...      .+++   ",
"  ...       +++.   ",
"  ..       +++..   ",
" ..       +++  ..  ",
" ..      +++   ..  ",
" ..     +++    ..  ",
" ..    +++     ..  ",
" ..   +++      ..  ",
" ..  +++       ..  ",
"  ..+++       ..   ",
"  .+++       ...   ",
"  +++.      ...    ",
" +++..........     ",
" ++   ......       ",
"                   ",
"                   "};
