/* XPM */
static const char *copy_xpm[] = {
"16 16 4 1",
"  c None",
"B c #000000000000",
"W c #FFFFFFFFFFFF",
"G c #666666666666",
"                ",
" BBBBBBB        ",
" BWWWWBWB       ",
" BWGGWBBB       ",
" BWWWWWWB       ",
" BWGGGGWB       ",
" BWWWWBBBBBBB   ",
" BWGGGBWWWWBWB  ",
" BWWWWBWGGWBBB  ",
" BBBBBBWWWWWWB  ",
"      BWGGGGWB  ",
"      BWWWWWWB  ",
"      BWGGGGWB  ",
"      BWWWWWWB  ",
"      BBBBBBBB  ",
"                ",
};
