/* XPM */
static const char *cut_xpm[] = {
"16 16 2 1",
"  c None",
"B c #000000000000",
"                ",
"                ",
"     B   B      ",
"     B   B      ",
"      B B       ",
"      B B       ",
"       B        ",
"       B        ",
"      B B       ",
"    BBB BBB     ",
"   B  B B  B    ",
"   B  B B  B    ",
"   B  B  BB     ",
"    BB          ",
"                ",
"                ",
};
