/* XPM */
static char * girl_xpm[] = {
"18 18 321 2",
"  	c None",
". 	c #00927F",
"+ 	c #00816B",
"@ 	c #008767",
"# 	c #088E6D",
"$ 	c #17735A",
"% 	c #26614F",
"& 	c #001C16",
"* 	c #00070A",
"= 	c #000513",
"- 	c #000120",
"; 	c #633A72",
"> 	c #7B357E",
", 	c #C169BF",
"' 	c #EDA5F7",
") 	c #A08ACB",
"! 	c #3C5F89",
"~ 	c #157486",
"{ 	c #008083",
"] 	c #007B72",
"^ 	c #059385",
"/ 	c #08917D",
"( 	c #02765F",
"_ 	c #216B5C",
": 	c #00160D",
"< 	c #000C0B",
"[ 	c #060F18",
"} 	c #12192C",
"| 	c #14082C",
"1 	c #AB77B5",
"2 	c #E596E5",
"3 	c #E282DC",
"4 	c #F9A9FF",
"5 	c #A385CD",
"6 	c #4C6898",
"7 	c #147586",
"8 	c #008183",
"9 	c #047681",
"0 	c #107F88",
"a 	c #016B6B",
"b 	c #1B6D6B",
"c 	c #001C1E",
"d 	c #000309",
"e 	c #060009",
"f 	c #160017",
"g 	c #0B0015",
"h 	c #1E0027",
"i 	c #873E85",
"j 	c #CE6BC5",
"k 	c #A8389C",
"l 	c #D779DA",
"m 	c #E0B0FF",
"n 	c #7D8EC6",
"o 	c #008481",
"p 	c #137A8D",
"q 	c #1E7F90",
"r 	c #166D76",
"s 	c #0C4B50",
"t 	c #00070C",
"u 	c #07040D",
"v 	c #0E0005",
"w 	c #250618",
"x 	c #290825",
"y 	c #845581",
"z 	c #ECA0E1",
"A 	c #DC7ACD",
"B 	c #A73C9A",
"C 	c #E087E3",
"D 	c #DDB2FF",
"E 	c #8A9ED3",
"F 	c #008281",
"G 	c #0D7888",
"H 	c #006470",
"I 	c #2D8287",
"J 	c #00393A",
"K 	c #2F4542",
"L 	c #FBF7F4",
"M 	c #392725",
"N 	c #C2A9AC",
"O 	c #C5ABB6",
"P 	c #3E1B33",
"Q 	c #925581",
"R 	c #B065A0",
"S 	c #FBABF2",
"T 	c #DA9EE4",
"U 	c #16043E",
"V 	c #365780",
"W 	c #177483",
"X 	c #037F7F",
"Y 	c #108185",
"Z 	c #127A7B",
"` 	c #186963",
" .	c #001107",
"..	c #445948",
"+.	c #ACAB97",
"@.	c #4F432D",
"#.	c #635240",
"$.	c #C7B7AA",
"%.	c #220A0A",
"&.	c #28000F",
"*.	c #33001F",
"=.	c #CD98C4",
"-.	c #CBAAD5",
";.	c #000325",
">.	c #16465C",
",.	c #17757D",
"'.	c #067E7F",
").	c #01796D",
"!.	c #198474",
"~.	c #0E5D48",
"{.	c #00270C",
"].	c #001300",
"^.	c #676941",
"/.	c #555124",
"(.	c #514A1E",
"_.	c #534F29",
":.	c #1E1200",
"<.	c #120000",
"[.	c #140000",
"}.	c #2F1822",
"|.	c #0D0A15",
"1.	c #00080C",
"2.	c #296969",
"3.	c #127978",
"4.	c #047F7D",
"5.	c #10816F",
"6.	c #157662",
"7.	c #003F27",
"8.	c #012406",
"9.	c #485029",
"0.	c #DBD4A6",
"a.	c #CAC38F",
"b.	c #D2CB95",
"c.	c #A69F71",
"d.	c #453B17",
"e.	c #180300",
"f.	c #080000",
"g.	c #050B07",
"h.	c #000E03",
"i.	c #15594E",
"j.	c #107B75",
"k.	c #02807D",
"l.	c #1A786A",
"m.	c #1E685B",
"n.	c #001103",
"o.	c #0B0F00",
"p.	c #665539",
"q.	c #DFC5A2",
"r.	c #D2BD92",
"s.	c #948254",
"t.	c #88744F",
"u.	c #6A5538",
"v.	c #150000",
"w.	c #1A0200",
"x.	c #0F0200",
"y.	c #000100",
"z.	c #03180F",
"A.	c #1E574E",
"B.	c #0F7A72",
"C.	c #058B84",
"D.	c #166B64",
"E.	c #00130E",
"F.	c #091C1A",
"G.	c #9D8F8C",
"H.	c #FEE1D3",
"I.	c #80604B",
"J.	c #826B4C",
"K.	c #D5C2A2",
"L.	c #F3DFC7",
"M.	c #FFFAEA",
"N.	c #775E59",
"O.	c #0E0000",
"P.	c #1B1515",
"Q.	c #030708",
"R.	c #000F0C",
"S.	c #001A17",
"T.	c #0F6F6B",
"U.	c #0C8580",
"V.	c #001C1F",
"W.	c #001419",
"X.	c #0F1D28",
"Y.	c #B9A9B4",
"Z.	c #EFD2D6",
"`.	c #FFEBE8",
" +	c #FFFAF1",
".+	c #FDF7EB",
"++	c #FFF5F3",
"@+	c #FFF8FC",
"#+	c #CDC1CB",
"$+	c #413B49",
"%+	c #585E6A",
"&+	c #00030C",
"*+	c #485961",
"=+	c #264851",
"-+	c #0A4F56",
";+	c #187074",
">+	c #0E6866",
",+	c #1E5F61",
"'+	c #283442",
")+	c #B09FAF",
"!+	c #EED7E1",
"~+	c #FFF1F5",
"{+	c #F6F8F5",
"]+	c #F5FFFE",
"^+	c #F2F7FD",
"/+	c #F0F2FF",
"(+	c #F0F1FF",
"_+	c #5F6678",
":+	c #586A78",
"<+	c #172D38",
"[+	c #4D5E68",
"}+	c #0E2934",
"|+	c #001D28",
"1+	c #003D4A",
"2+	c #147763",
"3+	c #12584D",
"4+	c #273737",
"5+	c #B2A5AC",
"6+	c #E4D4D7",
"7+	c #FEF8F8",
"8+	c #EAFDF9",
"9+	c #D5F2EE",
"0+	c #F1FFFF",
"a+	c #DDEDFA",
"b+	c #D8EBFA",
"c+	c #345159",
"d+	c #A6C2C6",
"e+	c #627174",
"f+	c #1D3036",
"g+	c #000A17",
"h+	c #001B2B",
"i+	c #136F48",
"j+	c #357457",
"k+	c #54574C",
"l+	c #B39B97",
"m+	c #E3CCC6",
"n+	c #FFFAF3",
"o+	c #E3F7EC",
"p+	c #E8FFFE",
"q+	c #D4E6EA",
"r+	c #F5FFFF",
"s+	c #DCE9F2",
"t+	c #EBFCFF",
"u+	c #D9F2EF",
"v+	c #6A7D77",
"w+	c #61625A",
"x+	c #09120D",
"y+	c #0D363C",
"z+	c #1A5460",
"A+	c #00450C",
"B+	c #8EB586",
"C+	c #CDBA9C",
"D+	c #895A46",
"E+	c #DBB09D",
"F+	c #E1C6B3",
"G+	c #D7DAC5",
"H+	c #F8FFF4",
"I+	c #FFFFFB",
"J+	c #F5F1F0",
"K+	c #FFFDFD",
"L+	c #FEFBF6",
"M+	c #F7FBEC",
"N+	c #F1ECD6",
"O+	c #866A54",
"P+	c #66614E",
"Q+	c #05423B",
"R+	c #0E6C6B",
"S+	c #236D3C",
"T+	c #487749",
"U+	c #B5AD89",
"V+	c #C8A68A",
"W+	c #7D6149",
"X+	c #B8AC96",
"Y+	c #BDCAB6",
"Z+	c #A4BBAB",
"`+	c #B4C3BE",
" @	c #B0BAB9",
".@	c #9EA7A4",
"+@	c #6A7064",
"@@	c #7D7D61",
"#@	c #6A603D",
"$@	c #5F4222",
"%@	c #83836B",
"&@	c #0E5C4F",
"*@	c #0E837D",
"=@	c #147E70",
"-@	c #146753",
";@	c #436847",
">@	c #A0B18F",
",@	c #516953",
"'@	c #325446",
")@	c #103E34",
"!@	c #0C433E",
"~@	c #064243",
"{@	c #033E42",
"]@	c #154F50",
"^@	c #1B4537",
"/@	c #263410",
"(@	c #A5A478",
"_@	c #BEBB98",
":@	c #35513A",
"<@	c #0B665D",
"[@	c #007674",
"}@	c #057F82",
"|@	c #1A7F77",
"1@	c #256040",
"2@	c #2E5A36",
"3@	c #002F1C",
"4@	c #2E675E",
"5@	c #397774",
"6@	c #236A6C",
"7@	c #2F7F86",
"8@	c #186D72",
"9@	c #1D6E71",
"0@	c #347162",
"a@	c #344920",
"b@	c #5A5E2C",
"c@	c #58623D",
"d@	c #1D472F",
"e@	c #0F7069",
"f@	c #007C7E",
". + @ # $ % & * = - ; > , ' ) ! ~ { ",
"] ^ / ( _ : < [ } | 1 2 3 4 5 6 7 8 ",
"9 0 a b c d e f g h i j k l m n 7 o ",
"p q r s t u v w x y z A B C D E ~ F ",
"G H I J K L M N O P Q R S T U V W X ",
"Y Z `  ...+.@.#.$.%.&.*.=.-.;.>.,.'.",
").!.~.{.].^./.(._.:.<.[.}.|.1.2.3.4.",
"5.6.7.8.9.0.a.b.c.d.e.<.f.g.h.i.j.k.",
"l.m.n.o.p.q.r.s.t.u.v.w.x.y.z.A.B.C.",
"D.E.F.G.H.I.J.K.L.M.N.O.P.Q.R.S.T.U.",
"V.W.X.Y.Z.`. +.+++@+#+$+%+&+*+=+-+;+",
">+,+'+)+!+~+{+]+^+/+(+_+:+<+[+}+|+1+",
"2+3+4+5+6+7+8+9+0+a+0+b+c+d+e+f+g+h+",
"i+j+k+l+m+n+o+p+q+r+s+t+u+v+w+x+y+z+",
"A+B+C+D+E+F+G+H+I+J+K+L+M+N+O+P+Q+R+",
"S+T+U+V+W+X+Y+Z+`+ @.@+@@@#@$@%@&@*@",
"=@-@;@>@,@'@)@!@~@{@]@^@/@(@_@:@<@[@",
"}@|@1@2@3@4@5@6@7@8@9@0@a@b@c@d@e@f@"};
