/* XPM */
static char * laji_xpm[] = {
"19 19 27 1",
" 	c None",
".	c #808080",
"+	c #BFBFBF",
"@	c #404040",
"#	c #202020",
"$	c #7F7F7F",
"%	c #9F9F9F",
"&	c #FFFFFF",
"*	c #DFDFDF",
"=	c #AFAFAF",
"-	c #CFCFCF",
";	c #909090",
">	c #707070",
",	c #C0C0C0",
"'	c #EFEFEF",
")	c #000000",
"!	c #B0B0B0",
"~	c #80A080",
"{	c #9FBF9F",
"]	c #606060",
"^	c #A0A0A0",
"/	c #90B090",
"(	c #60A060",
"_	c #008000",
":	c #309030",
"<	c #509050",
"[	c #709070",
"                   ",
"                   ",
"     .+ .+ .@      ",
"  #$++%+&++&*$     ",
"  +%%&+=&**+++     ",
"  =-+*+*+&;*&%@    ",
"  >,--+*++*&&'++)  ",
"  @,,,--%!+'*-*+)  ",
"  #!,,,~{--*+%.])  ",
"   ^/(((_:,....@   ",
"   >/_(,:_,....#   ",
"   @((/,,/,....)   ",
"   #~<,:,<,...])   ",
"    ^/~__:,...@    ",
"    @>![,,,...#    ",
"     )#>!,,...)    ",
"       )#>!..@)    ",
"         )#@)      ",
"                   "};
