/* XPM */
static char * mima_xpm[] = {
"18 18 4 1",
" 	c None",
".	c #000000",
"+	c #808080",
"@	c #C0C0C0",
"                  ",
"                  ",
"                  ",
"         ..++.    ",
"      ...+@@@@.   ",
".......+.@@@++@.  ",
"+@@@@@@@@@@@..+.  ",
".++++++++@@@..+.  ",
" ........@@@@@++  ",
"  ...... .@@@++.  ",
"          ...+.   ",
"                  ",
"                  ",
"                  ",
"                  ",
"                  ",
"                  ",
"                  "};
