/* XPM */
static char * name_xpm[] = {
"48 48 777 2",
"  	c None",
". 	c #000000",
"+ 	c #060503",
"@ 	c #5E5346",
"# 	c #62564A",
"$ 	c #050303",
"% 	c #0A0705",
"& 	c #63584B",
"* 	c #CEC4BA",
"= 	c #74604C",
"- 	c #897157",
"; 	c #513B25",
"> 	c #342211",
", 	c #342111",
"' 	c #362212",
") 	c #3B2715",
"! 	c #342010",
"~ 	c #2E1F10",
"{ 	c #4F3A27",
"] 	c #52412F",
"^ 	c #AB9F90",
"/ 	c #CCC6BE",
"( 	c #C4BCB4",
"_ 	c #5A4F43",
": 	c #050403",
"< 	c #251E17",
"[ 	c #C6BBB1",
"} 	c #C2AE9A",
"| 	c #D7C1A7",
"1 	c #BDA486",
"2 	c #5C4429",
"3 	c #362312",
"4 	c #402B17",
"5 	c #3F2916",
"6 	c #352110",
"7 	c #392413",
"8 	c #362211",
"9 	c #372312",
"0 	c #B29774",
"a 	c #AC9174",
"b 	c #443321",
"c 	c #493F33",
"d 	c #D9D0C5",
"e 	c #BBA286",
"f 	c #E5D3BC",
"g 	c #593F26",
"h 	c #362412",
"i 	c #61462C",
"j 	c #61462B",
"k 	c #3E2A17",
"l 	c #332010",
"m 	c #2E1D0E",
"n 	c #302012",
"o 	c #2B1C0E",
"p 	c #6B4F33",
"q 	c #957655",
"r 	c #DFCBB1",
"s 	c #D4BEA4",
"t 	c #604E3D",
"u 	c #010000",
"v 	c #342C23",
"w 	c #A6998A",
"x 	c #D0B99C",
"y 	c #B69B7B",
"z 	c #9E8160",
"A 	c #4E3620",
"B 	c #3D2916",
"C 	c #221409",
"D 	c #23160A",
"E 	c #2A1D11",
"F 	c #190E05",
"G 	c #28180B",
"H 	c #2E1C0D",
"I 	c #472E17",
"J 	c #735436",
"K 	c #544230",
"L 	c #16110C",
"M 	c #3B3227",
"N 	c #958A7C",
"O 	c #B79E80",
"P 	c #9E8261",
"Q 	c #3B2614",
"R 	c #D5BFA4",
"S 	c #CDB698",
"T 	c #422A18",
"U 	c #2F1D0E",
"V 	c #221509",
"W 	c #2E2014",
"X 	c #170E07",
"Y 	c #20150C",
"Z 	c #1B1006",
"` 	c #5E452D",
" .	c #7D6040",
"..	c #705334",
"+.	c #341F0E",
"@.	c #130B05",
"#.	c #4B4035",
"$.	c #463C30",
"%.	c #B6A28B",
"&.	c #B39877",
"*.	c #49321C",
"=.	c #DAC4A9",
"-.	c #C2A889",
";.	c #362311",
">.	c #432D18",
",.	c #412A16",
"'.	c #33200F",
").	c #2C1B0C",
"!.	c #231509",
"~.	c #3C2E20",
"{.	c #251A11",
"].	c #6B5947",
"^.	c #4F3D2C",
"/.	c #1F1308",
"(.	c #201308",
"_.	c #573E26",
":.	c #A28361",
"<.	c #725434",
"[.	c #0A0603",
"}.	c #060504",
"|.	c #1B1610",
"1.	c #9D9185",
"2.	c #987D5F",
"3.	c #4D361F",
"4.	c #EFE2CF",
"5.	c #9C7F5D",
"6.	c #725637",
"7.	c #A38563",
"8.	c #6D5033",
"9.	c #745637",
"0.	c #352010",
"a.	c #27180B",
"b.	c #463323",
"c.	c #180E06",
"d.	c #433427",
"e.	c #6F5D4A",
"f.	c #816C56",
"g.	c #79634C",
"h.	c #453323",
"i.	c #1C1006",
"j.	c #211308",
"k.	c #5F4329",
"l.	c #4B321D",
"m.	c #080605",
"n.	c #231D15",
"o.	c #ACA196",
"p.	c #312418",
"q.	c #452F1A",
"r.	c #E4D1BA",
"s.	c #886A4A",
"t.	c #7B5E3E",
"u.	c #D0B79A",
"v.	c #816243",
"w.	c #8B6C4B",
"x.	c #362110",
"y.	c #311E0F",
"z.	c #28180A",
"A.	c #322213",
"B.	c #2B1C11",
"C.	c #1E1209",
"D.	c #7D6C58",
"E.	c #7F6B57",
"F.	c #856F57",
"G.	c #7E6852",
"H.	c #806B54",
"I.	c #76614A",
"J.	c #1F1207",
"K.	c #281A0D",
"L.	c #3D2816",
"M.	c #050301",
"N.	c #A09588",
"O.	c #211A14",
"P.	c #3D2A19",
"Q.	c #C0A786",
"R.	c #876848",
"S.	c #3D2714",
"T.	c #886A49",
"U.	c #DFCAB0",
"V.	c #5F4428",
"W.	c #9B7C5A",
"X.	c #34200F",
"Y.	c #3B2514",
"Z.	c #27170A",
"`.	c #28190C",
" +	c #322316",
".+	c #1B1007",
"++	c #826E5B",
"@+	c #A79580",
"#+	c #B9A38D",
"$+	c #A18970",
"%+	c #816C55",
"&+	c #7C6751",
"*+	c #836D55",
"=+	c #6D553F",
"-+	c #23160B",
";+	c #352516",
">+	c #1B1108",
",+	c #3D342A",
"'+	c #2A1B0F",
")+	c #6D5133",
"!+	c #A88B69",
"~+	c #EFE1CE",
"{+	c #AC8F6D",
"]+	c #382311",
"^+	c #372211",
"/+	c #261609",
"(+	c #2C1C0F",
"_+	c #513F2E",
":+	c #180E05",
"<+	c #756250",
"[+	c #BCA995",
"}+	c #CFBDA9",
"|+	c #DCC5AC",
"1+	c #D0B699",
"2+	c #AE9479",
"3+	c #8D765F",
"4+	c #826C57",
"5+	c #867058",
"6+	c #4A3727",
"7+	c #423122",
"8+	c #483624",
"9+	c #030201",
"0+	c #A78968",
"a+	c #432C18",
"b+	c #684C30",
"c+	c #F3E7D7",
"d+	c #3F2815",
"e+	c #876847",
"f+	c #604428",
"g+	c #321E0E",
"h+	c #302013",
"i+	c #816B53",
"j+	c #3E3023",
"k+	c #B7A591",
"l+	c #CCB9A5",
"m+	c #F5DEC7",
"n+	c #E7D0B7",
"o+	c #D9BEA2",
"p+	c #C5A98A",
"q+	c #BB9E81",
"r+	c #937C65",
"s+	c #7F6952",
"t+	c #7D6851",
"u+	c #493928",
"v+	c #7A654E",
"w+	c #614B37",
"x+	c #5A432E",
"y+	c #0A0604",
"z+	c #63482C",
"A+	c #5C4127",
"B+	c #6A4D31",
"C+	c #E9D8C3",
"D+	c #4C331C",
"E+	c #432C17",
"F+	c #A08360",
"G+	c #2E1C0C",
"H+	c #3E2C1C",
"I+	c #887259",
"J+	c #433223",
"K+	c #1A1108",
"L+	c #9D8B78",
"M+	c #F3DCC3",
"N+	c #FDE5CB",
"O+	c #EDD3B7",
"P+	c #DFC2A4",
"Q+	c #CBAE90",
"R+	c #C9A989",
"S+	c #B4987B",
"T+	c #816A53",
"U+	c #77624C",
"V+	c #675542",
"W+	c #655341",
"X+	c #FAD6AE",
"Y+	c #DCB691",
"Z+	c #5B422A",
"`+	c #402A17",
" @	c #B39775",
".@	c #664A2E",
"+@	c #9A7B5A",
"@@	c #311E0E",
"#@	c #2A190B",
"$@	c #251509",
"%@	c #594430",
"&@	c #877058",
"*@	c #614E3A",
"=@	c #170D05",
"-@	c #5A4939",
";@	c #C7B49E",
">@	c #F6DDC3",
",@	c #FDE4C9",
"'@	c #FDE2C6",
")@	c #F0D3B4",
"!@	c #DFC2A2",
"~@	c #D6B795",
"{@	c #C7A785",
"]@	c #C0A07F",
"^@	c #8A7259",
"/@	c #6F5B47",
"(@	c #4F4031",
"_@	c #4F4030",
":@	c #EDCBA8",
"<@	c #C8AC8F",
"[@	c #D4B495",
"}@	c #7F644A",
"|@	c #533A23",
"1@	c #5F452B",
"2@	c #CEB396",
"3@	c #846543",
"4@	c #4C341C",
"5@	c #53402E",
"6@	c #826C55",
"7@	c #614E3B",
"8@	c #443628",
"9@	c #B59E86",
"0@	c #EFD5B9",
"a@	c #F9E0C5",
"b@	c #FCDEBE",
"c@	c #F1D2B1",
"d@	c #E0C19F",
"e@	c #CEAF8C",
"f@	c #BF9F7F",
"g@	c #9A8064",
"h@	c #7D6750",
"i@	c #62513F",
"j@	c #584939",
"k@	c #362A1F",
"l@	c #F1CFAB",
"m@	c #605447",
"n@	c #726353",
"o@	c #9E856D",
"p@	c #5B4129",
"q@	c #9D7F5C",
"r@	c #795A3A",
"s@	c #6C4F30",
"t@	c #937353",
"u@	c #2F1E0F",
"v@	c #2D1F14",
"w@	c #76624D",
"x@	c #47382A",
"y@	c #0F0803",
"z@	c #221912",
"A@	c #504436",
"B@	c #4E4337",
"C@	c #AB967F",
"D@	c #E2C8AD",
"E@	c #EFD3B4",
"F@	c #E8CAAB",
"G@	c #D7B99A",
"H@	c #B69B7E",
"I@	c #715F4D",
"J@	c #493C2F",
"K@	c #241E17",
"L@	c #0F0D0A",
"M@	c #44382B",
"N@	c #E3C2A0",
"O@	c #5B4F43",
"P@	c #A08A73",
"Q@	c #665442",
"R@	c #322111",
"S@	c #866545",
"T@	c #6F5233",
"U@	c #62472A",
"V@	c #523923",
"W@	c #25160A",
"X@	c #1B1008",
"Y@	c #483A2D",
"Z@	c #0F0B09",
"`@	c #0C0C0C",
" #	c #353535",
".#	c #635445",
"+#	c #B9A189",
"@#	c #CFB79D",
"##	c #473E34",
"$#	c #A58C73",
"%#	c #675746",
"&#	c #131211",
"*#	c #060606",
"=#	c #091119",
"-#	c #4C4F53",
";#	c #362E26",
">#	c #362C22",
",#	c #43372A",
"'#	c #D0B293",
")#	c #6A5B4D",
"!#	c #6D5E4E",
"~#	c #5A4B3C",
"{#	c #1E1208",
"]#	c #4E351E",
"^#	c #5B4128",
"/#	c #2E1D10",
"(#	c #26190E",
"_#	c #4F3D2E",
":#	c #392F25",
"<#	c #312F2C",
"[#	c #41484F",
"}#	c #162C42",
"|#	c #132639",
"1#	c #616363",
"2#	c #BAB3AD",
"3#	c #6F5C48",
"4#	c #A9947D",
"5#	c #BFA990",
"6#	c #080705",
"7#	c #382F26",
"8#	c #625444",
"9#	c #6A6968",
"0#	c #0C161F",
"a#	c #213548",
"b#	c #323336",
"c#	c #29231E",
"d#	c #43372B",
"e#	c #B2967A",
"f#	c #A48B70",
"g#	c #41362C",
"h#	c #786450",
"i#	c #1A0F07",
"j#	c #422D1B",
"k#	c #2B1A0B",
"l#	c #3E2917",
"m#	c #453321",
"n#	c #7C654C",
"o#	c #90775E",
"p#	c #695744",
"q#	c #37322C",
"r#	c #222224",
"s#	c #1C2937",
"t#	c #1B324B",
"u#	c #707273",
"v#	c #3C3934",
"w#	c #615242",
"x#	c #BAA691",
"y#	c #D8BEA4",
"z#	c #0E0D0B",
"A#	c #0D0B08",
"B#	c #42362A",
"C#	c #3F3B36",
"D#	c #0A0908",
"E#	c #100E0C",
"F#	c #48413A",
"G#	c #544A40",
"H#	c #4A3F33",
"I#	c #4D3F31",
"J#	c #D7B48F",
"K#	c #8F785F",
"L#	c #816B54",
"M#	c #21160D",
"N#	c #483523",
"O#	c #1C0F06",
"P#	c #352415",
"Q#	c #A08468",
"R#	c #A5896C",
"S#	c #B79876",
"T#	c #C8A885",
"U#	c #A48C74",
"V#	c #514A42",
"W#	c #26211C",
"X#	c #1D1915",
"Y#	c #27231E",
"Z#	c #4B4239",
"`#	c #C8B096",
" $	c #DDC3A9",
".$	c #E2C8AC",
"+$	c #483A2E",
"@$	c #65594C",
"#$	c #736557",
"$$	c #7D6E5E",
"%$	c #796A5A",
"&$	c #6D6053",
"*$	c #53483D",
"=$	c #A78C6F",
"-$	c #D4B18B",
";$	c #B79877",
">$	c #64503C",
",$	c #6F5840",
"'$	c #82684E",
")$	c #A5886A",
"!$	c #C09F7C",
"~$	c #F7D0A7",
"{$	c #F5D3AE",
"]$	c #EBCFB2",
"^$	c #E8CDB1",
"/$	c #E1C4A8",
"($	c #D0BAA3",
"_$	c #E1CCB6",
":$	c #E9D4BF",
"<$	c #EFDAC5",
"[$	c #EFD5BC",
"}$	c #F1D4B4",
"|$	c #C6AC8F",
"1$	c #231D17",
"2$	c #756759",
"3$	c #81705F",
"4$	c #8C7A66",
"5$	c #827160",
"6$	c #6F6153",
"7$	c #4F4439",
"8$	c #46392C",
"9$	c #9F8568",
"0$	c #BB9C7B",
"a$	c #A58A6D",
"b$	c #AF9273",
"c$	c #62482F",
"d$	c #C3A07C",
"e$	c #D7B38D",
"f$	c #FBD3A9",
"g$	c #FBD6AF",
"h$	c #FCDCBB",
"i$	c #F9DEC2",
"j$	c #F7DBBF",
"k$	c #F5DBC1",
"l$	c #F3DCC4",
"m$	c #F1DCC7",
"n$	c #F3E0CC",
"o$	c #F5E0CC",
"p$	c #F7E0C7",
"q$	c #F7D8B8",
"r$	c #F6D2AC",
"s$	c #1B1712",
"t$	c #020101",
"u$	c #716355",
"v$	c #847261",
"w$	c #8D7B67",
"x$	c #6A5E52",
"y$	c #483C2F",
"z$	c #221B15",
"A$	c #463B2E",
"B$	c #A28769",
"C$	c #C3A27E",
"D$	c #D9B48E",
"E$	c #F5CCA0",
"F$	c #FBD3A8",
"G$	c #FBD4AB",
"H$	c #FBD7B0",
"I$	c #FCDCBC",
"J$	c #FDDFC3",
"K$	c #FBE0C7",
"L$	c #F9E0C8",
"M$	c #F8E0CA",
"N$	c #F8E2CD",
"O$	c #FAE2CA",
"P$	c #FBE3CA",
"Q$	c #F9DDC0",
"R$	c #F7D3AB",
"S$	c #B89775",
"T$	c #312B24",
"U$	c #857563",
"V$	c #7D6C5D",
"W$	c #5F5247",
"X$	c #45382B",
"Y$	c #DBB68F",
"Z$	c #F3CBA1",
"`$	c #F6CCA2",
" %	c #FBD2A8",
".%	c #FAD3AA",
"+%	c #FBD7B1",
"@%	c #FCDFC0",
"#%	c #FDE1C5",
"$%	c #FDE3C9",
"%%	c #FDE4CB",
"&%	c #FCE3CA",
"*%	c #FBE1C5",
"=%	c #FAE1C7",
"-%	c #F9DAB9",
";%	c #E8C39B",
">%	c #E2BB90",
",%	c #2E261D",
"'%	c #040302",
")%	c #766352",
"!%	c #847361",
"~%	c #7B6A5B",
"{%	c #4F453A",
"]%	c #493B2E",
"^%	c #C5A481",
"/%	c #EDC69C",
"(%	c #F2CBA1",
"_%	c #F6CB9F",
":%	c #F9CEA2",
"<%	c #FAD2A8",
"[%	c #F9D5AF",
"}%	c #B89D81",
"|%	c #F3D4B2",
"1%	c #FBDFC1",
"2%	c #FBDEC1",
"3%	c #FBDEC0",
"4%	c #F9DFC2",
"5%	c #F9DDBF",
"6%	c #85735F",
"7%	c #5E4F41",
"8%	c #8C7965",
"9%	c #726456",
"0%	c #473D32",
"a%	c #4B3D2F",
"b%	c #826C53",
"c%	c #D7B28A",
"d%	c #E7BF95",
"e%	c #EBC298",
"f%	c #F3C99E",
"g%	c #F9D2A9",
"h%	c #F8D3AA",
"i%	c #947E66",
"j%	c #221D18",
"k%	c #A38D75",
"l%	c #E7CAAA",
"m%	c #F4D8BA",
"n%	c #F8D6B2",
"o%	c #F7D2AB",
"p%	c #CDAA87",
"q%	c #534535",
"r%	c #322920",
"s%	c #29221A",
"t%	c #4B3D30",
"u%	c #88705A",
"v%	c #877563",
"w%	c #66594C",
"x%	c #43362A",
"y%	c #594939",
"z%	c #7E6851",
"A%	c #C5A380",
"B%	c #DBB58E",
"C%	c #E5BD95",
"D%	c #EEC498",
"E%	c #F4C99C",
"F%	c #F8CDA1",
"G%	c #8A755F",
"H%	c #443A30",
"I%	c #C3A98D",
"J%	c #ECCAA7",
"K%	c #F6D0A7",
"L%	c #F5CDA3",
"M%	c #F4C79B",
"N%	c #F0C698",
"O%	c #EABF94",
"P%	c #B79774",
"Q%	c #AF8E6E",
"R%	c #5B4939",
"S%	c #504133",
"T%	c #403328",
"U%	c #352A20",
"V%	c #6D5A46",
"W%	c #997E63",
"X%	c #B99877",
"Y%	c #D8B18A",
"Z%	c #E4BC92",
"`%	c #F1C79C",
" &	c #D9B38C",
".&	c #A88B6B",
"+&	c #120F0C",
"@&	c #0C0A08",
"#&	c #5D4E3F",
"$&	c #6E5C48",
"%&	c #806A51",
"&&	c #826A52",
"*&	c #78634C",
"=&	c #62503E",
"-&	c #2A231B",
";&	c #040303",
">&	c #16120E",
",&	c #3C3025",
"'&	c #5E4E3C",
")&	c #816A52",
"!&	c #A28567",
"~&	c #B79675",
"{&	c #D8B28C",
"]&	c #E3BC93",
"^&	c #EBC196",
"/&	c #DFB78E",
"(&	c #D8B28A",
"_&	c #C09D7A",
":&	c #362D23",
"<&	c #231D16",
"[&	c #554535",
"}&	c #3B2F25",
"|&	c #423429",
"1&	c #554536",
"2&	c #9E8266",
"3&	c #B39372",
"4&	c #D5AF88",
"5&	c #E8BE94",
"6&	c #E8BF94",
"7&	c #D8B28B",
"8&	c #CFA883",
"9&	c #B79674",
"0&	c #7D654F",
"a&	c #544535",
"b&	c #413429",
"c&	c #3A2F24",
"d&	c #5C4A3A",
"e&	c #65523F",
"f&	c #584737",
"g&	c #44372A",
"h&	c #31271E",
"i&	c #1D1812",
"j&	c #665441",
"k&	c #715D48",
"l&	c #987D61",
"m&	c #AE8F6F",
"n&	c #C4A17E",
"o&	c #E0B890",
"p&	c #E9BF94",
"q&	c #CEA882",
"r&	c #B49472",
"s&	c #9C7F63",
"t&	c #8C7359",
"u&	c #886F56",
"v&	c #886E55",
"w&	c #856C54",
"x&	c #7E664F",
"y&	c #5E4C3B",
"z&	c #544435",
"A&	c #392D23",
"B&	c #362B21",
"C&	c #1E1812",
"D&	c #1A1610",
"E&	c #645340",
"F&	c #63513F",
"G&	c #876F57",
"H&	c #A58769",
"I&	c #B59473",
"J&	c #C39E7B",
"K&	c #D7AF88",
"L&	c #CFA983",
"M&	c #92785C",
"N&	c #8A7057",
"O&	c #896F56",
"P&	c #846B53",
"Q&	c #715C47",
"R&	c #624F3D",
"S&	c #534334",
"T&	c #382D22",
"U&	c #17120F",
"V&	c #5C4C3A",
"W&	c #6B5743",
"X&	c #8D7359",
"Y&	c #A7886A",
"Z&	c #B79574",
"`&	c #B49271",
" *	c #A78769",
".*	c #A68769",
"+*	c #A38467",
"@*	c #9F8164",
"#*	c #695542",
"$*	c #5F4C3A",
"%*	c #3D3126",
"&*	c #2F251C",
"**	c #17120D",
"=*	c #15110D",
"-*	c #413529",
";*	c #77614B",
">*	c #8E7359",
",*	c #8D7258",
"'*	c #78614B",
")*	c #66523F",
"!*	c #564536",
"~*	c #33291F",
"{*	c #282018",
"]*	c #1F1A13",
"^*	c #473A2C",
"/*	c #524233",
"(*	c #4E3F31",
"_*	c #574737",
":*	c #6E5945",
"<*	c #6B5643",
"[*	c #514132",
"}*	c #47392C",
"|*	c #493A2C",
"1*	c #392E23",
"2*	c #100C08",
"3*	c #110E0A",
"4*	c #2B231A",
"5*	c #372C22",
"6*	c #3A2E24",
"7*	c #493A2D",
"8*	c #4A3B2D",
"9*	c #48392C",
"0*	c #342A20",
"a*	c #231C15",
"b*	c #0C0907",
"                                                                                                ",
"                                  . . . . . . .           .                                     ",
"                              . . + @ # $ . . . . .     . . . . . .                             ",
"                          . . % & * = - ; > , ' ) ! ~ { ] ^ / ( _ . . .                         ",
"                        . : < [ } | 1 2 3 4 5 , 6 7 8 8 9 0 a b . . . . .                       ",
"                      . + c d e f g h i j , ! k ! l m n o p q r s t u . . . .                   ",
"                    . $ v w 1 x h , y z ! ! A ! ! B C D E F G H I J K L . .                     ",
"                    : M N O P Q 3 R S 5 ! 8 ! ! T U V W X Y Z `  ...+.@.. . .                   ",
"                  . #.$.%.&.*.5 =.-.;.>.! ,.>.9 '.).!.~.{.].^./.(._.:.<.[.. .                   ",
"                  }.|.1.2.3.5 4.5.! 6.7.8.9.0.! U a.b.c.d.e.f.g.h.i.j.k.l.m.. .                 ",
"                . n.o.p.q.3 r.s.! t.u.v.w.! x.y.z.A.B.C.D.E.F.G.H.I.J.K.L.M.. .                 ",
"                . N.O.P.! Q.R.S.T.U.V.W.! X.Y.Z.`. +.+++@+#+$+%+&+*+=+-+;+>+.                   ",
"                }.,+. '+)+!+t.T.~+8 {+]+X.^+/+(+_+:+<+[+}+|+1+2+3+4+5+6+7+8+.                   ",
"              . 9+. . ;.0+a+b+c+d+e+f+X.g+z.h+i+C.j+k+l+m+n+o+p+q+r+s+t+u+v+.                   ",
"              w+x+y+. z+A+B+C+D+E+F+X.G+/+H+I+J+K+L+l+M+N+O+P+Q+R+S+T+U+V+W+.                   ",
"              X+Y+Z+[.`+a+ @.@x.+@@@#@$@%@&@*@=@-@;@>@,@'@)@!@~@{@]@^@/@(@_@.                   ",
"              :@<@[@}@|@1@2@,.3@4@z.j.5@6@7@=@8@9@0@a@'@b@c@d@e@f@g@h@i@j@k@.                   ",
"              l@m@n@o@p@q@r@s@t@u@J.v@w@x@y@z@A@B@C@D@E@F@G@H@I@J@K@L@}.K@M@.                   ",
"              N@O@P@Q@R@S@T@U@V@W@X@Y@Z@. . . `@ #.#+#@###$#%#&#*#=#-#;#>#,#.                   ",
"              '#)#!#~#{#]#]+^#/#(#_#:#<#[#}#|#1#2#3#4#5#6#7#8#9#0#a#b#c#>#d#.                   ",
"              e#f#g#h#i#j#k#l#m#n#o#p#q#r#s#t#u#v#w#x#y#z#A#B#C#D#E#F#G#H#I#.                   ",
"                J#K#L#M#N#O#P#Q#R#S#T#U#V#W#X#Y#Z#`# $.$W#. +$@$#$$$%$&$*$M@.                   ",
"                =$-$;$>$,$i.'$)$!$~${$]$^$/$($_$:$<$[$}$|$. 1$2$3$4$5$6$7$8$.                   ",
"                  9$0$a$b$c$d$e$f$g$h$i$j$k$l$m$n$o$p$q$r$s$t$u$v$w$3$x$y$z$                    ",
"                    A$B$C$D$E$F$G$H$I$J$K$L$M$N$O$P$P$Q$R$S$. T$3$U$V$W$X$.                     ",
"                    . . Y$Z$`$ %F$.%+%@%#%$%%%&%*%P$=%-%;%>%,%'%)%!%~%{%]%.                     ",
"                      . ^%/%(%_%:%<%[%}%|%1%2%3%4%5%-%6%. . . . 7%8%9%0%a%.                     ",
"                        b%c%d%e%f%g%h%i%j%k%l%m%-%n%o%p%q%r%s%t%u%v%w%B#x%.                     ",
"                        y%z%A%B%C%D%E%F%G%}.H%I%J%K%L%M%N%O%P%Q%R%:#S%T%U%.                     ",
"                          V%W%X%Y%Z%e%`% &.&+&@&#&$&%&&&*&=&-&;&m.>&Y@,&. .                     ",
"                          '&)&!&~&{&]&^&/&(&_&:&. . . . . . . . <&[&}&|&.                       ",
"                            1&T+2&3&4&5&6&7&8&9&0&a&b&c&c&]%d&e&f&g&h&|&.                       ",
"                            i&j&k&l&m&n&o&p&q&r&s&t&u&v&v&w&x&y&z&A&B&C&.                       ",
"                              D&E&F&G&H&I&J&K&L&s&M&N&O&v&P&Q&R&S&c&T&. .                       ",
"                                U&R%V&W&X&Y&Z&`& *.*+*@*@*&&#*$*%*&***.                         ",
"                                . =*-*(@'&;*N&>*w&v&,*,*'*)*!*,&~*{*. .                         ",
"                                  . . ]*^*/*(*_*:*<*d&[*}*|*%*1*z$2*. .                         ",
"                                    . . . 3*4*5*6*7*8*7*9*0*a*b*. . . .                         ",
"                                        . . . . . . . . . . . . . . .                           ",
"                                          . . . . . . . . . . . . .                             ",
"                                              . . . . . . . . . .                               ",
"                                                      . . .                                     ",
"                                                                                                ",
"                                                                                                ",
"                                                                                                ",
"                                                                                                ",
"                                                                                                ",
"                                                                                                "};
