/* XPM */
static const gchar *open_xpm[] = {
"16 16 4 1",
"  c None",
"B c #000000000000",
"Y c #FFFFFFFF0000",
"y c #999999990000",
"                ",
"          BBB   ",
"  BBBBB  B   BB ",
"  BYYYB      BB ",
" BYYYYYBBBBB    ",
" BYYYYYYYYYB    ",
" BYYYYYYYYYB    ",
" BYYYYYYYYYB    ",
" BYYBBBBBBBBBBB ",
" BYYByyyyyyyyyB ",
" BYByyyyyyyyyB  ",
" BYByyyyyyyyyB  ",
" BByyyyyyyyyB   ",
" BByyyyyyyyyB   ",
" BBBBBBBBBBB    ",
"                ",
};
