/* XPM */
static const char *paste_xpm[] = {
"16 16 5 1",
"  c None",
"B c #000000000000",
"W c #FFFFFFFFFFFF",
"G c #666666666666",
"Y c #888888880000",
"                ",
"       BB       ",
"  BBBBBYYBBBBB  ",
"  BYYBBBBBBYYB  ",
"  BYYYYYYYYYYB  ",
"  BYYYYYYYYYYB  ",
"  BYYYYBBBBBBBB ",
"  BYYYYBWWWWBWB ",
"  BYYYYBWGGWBBB ",
"  BYYYYBWWWWWWB ",
"  BYYYYBWGGGGWB ",
"  BYYYYBWWWWWWB ",
"  BYYYYBWGGGGWB ",
"  BBBBBBWWWWWWB ",
"       BBBBBBBB ",
"                ",
};
