/* XPM */
static char * personal_xpm[] = {
"48 48 523 2",
"  	c None",
". 	c #CECCBE",
"+ 	c #E3E0C5",
"@ 	c #D9D49F",
"# 	c #AAA15A",
"$ 	c #C9C7BF",
"% 	c #EBE8DD",
"& 	c #E9E5CF",
"* 	c #DBD6A6",
"= 	c #BDB361",
"- 	c #7D7021",
"; 	c #CBCBC7",
"> 	c #D3D2CF",
", 	c #B4B3B3",
"' 	c #666662",
") 	c #DBD9D3",
"! 	c #ECEBDF",
"~ 	c #E8E5D0",
"{ 	c #DDD8AC",
"] 	c #C7BC6D",
"^ 	c #92873A",
"/ 	c #796E1D",
"( 	c #A49535",
"_ 	c #AEA13A",
": 	c #A49425",
"< 	c #60510E",
"[ 	c #E9E8E5",
"} 	c #EFEEEC",
"| 	c #E4E3E1",
"1 	c #C7C7C3",
"2 	c #9D9C97",
"3 	c #E9E7DE",
"4 	c #ECEADE",
"5 	c #E6E2CC",
"6 	c #DCD7A7",
"7 	c #CEC47A",
"8 	c #BCAF54",
"9 	c #BBAD3D",
"0 	c #C0AF3E",
"a 	c #C1B33F",
"b 	c #BDA726",
"c 	c #846603",
"d 	c #C8C7C3",
"e 	c #F0EFEC",
"f 	c #EEEEE9",
"g 	c #EAE7E1",
"h 	c #EBE9E0",
"i 	c #EAE8DC",
"j 	c #E5E2CF",
"k 	c #E0DDBC",
"l 	c #D6D29C",
"m 	c #CFC779",
"n 	c #C4BA57",
"o 	c #C1B348",
"p 	c #C2B341",
"q 	c #C2B037",
"r 	c #BDA321",
"s 	c #977500",
"t 	c #453000",
"u 	c #D4D2CA",
"v 	c #EFEEE6",
"w 	c #EEEDE5",
"x 	c #EAE9DF",
"y 	c #E7E5D9",
"z 	c #E4E0CC",
"A 	c #DCD8B7",
"B 	c #D6D09E",
"C 	c #CCC27A",
"D 	c #C4BB62",
"E 	c #C0B04C",
"F 	c #C1B03F",
"G 	c #C1B03C",
"H 	c #C1AB2C",
"I 	c #B99C19",
"J 	c #957000",
"K 	c #443100",
"L 	c #B9B9B9",
"M 	c #C2C2C2",
"N 	c #BEBEBE",
"O 	c #B8B8B8",
"P 	c #B2B2B2",
"Q 	c #A8A8A8",
"R 	c #9C9C9C",
"S 	c #737373",
"T 	c #555555",
"U 	c #3B3B3B",
"V 	c #BFBCAB",
"W 	c #EAE8D8",
"X 	c #EAE8DA",
"Y 	c #E9E7D9",
"Z 	c #E5E2D1",
"` 	c #DDD9C0",
" .	c #D4CFA9",
"..	c #CBC48B",
"+.	c #C3BA6F",
"@.	c #BCB15C",
"#.	c #BCAC46",
"$.	c #BFAB33",
"%.	c #C1A829",
"&.	c #C0AA2A",
"*.	c #BEA423",
"=.	c #B59815",
"-.	c #866200",
";.	c #342A00",
">.	c #DADADA",
",.	c #EFEFEF",
"'.	c #EEEEEE",
").	c #E8E8E8",
"!.	c #E0E0E0",
"~.	c #D7D7D7",
"{.	c #CACACA",
"].	c #9B9B9B",
"^.	c #7C7C7C",
"/.	c #565656",
"(.	c #333333",
"_.	c #181818",
":.	c #000000",
"<.	c #DBD8B6",
"[.	c #E3E0C3",
"}.	c #E3DFC3",
"|.	c #DFDABB",
"1.	c #D6D0A9",
"2.	c #C8BF8A",
"3.	c #BDB272",
"4.	c #B3A75B",
"5.	c #B6A441",
"6.	c #B49D2E",
"7.	c #B59A21",
"8.	c #B69917",
"9.	c #BAA01B",
"0.	c #987700",
"a.	c #462A00",
"b.	c #0C0A01",
"c.	c #8F8F8F",
"d.	c #DFDFDF",
"e.	c #EAEAEA",
"f.	c #E4E4E4",
"g.	c #DBDBDB",
"h.	c #CECECE",
"i.	c #BFBFBF",
"j.	c #868686",
"k.	c #5F5F5F",
"l.	c #414141",
"m.	c #252525",
"n.	c #080808",
"o.	c #DBD69F",
"p.	c #DBD7A6",
"q.	c #D8D2A0",
"r.	c #D1C992",
"s.	c #C2B873",
"t.	c #B3A45B",
"u.	c #AF9539",
"v.	c #A99029",
"w.	c #A4861D",
"x.	c #A48511",
"y.	c #A68108",
"z.	c #AB880B",
"A.	c #B28F13",
"B.	c #A37F00",
"C.	c #946B00",
"D.	c #644900",
"E.	c #020000",
"F.	c #A0A0A0",
"G.	c #DDDDDD",
"H.	c #D4D4D4",
"I.	c #C3C3C3",
"J.	c #B0B0B0",
"K.	c #949494",
"L.	c #6C6C6C",
"M.	c #484848",
"N.	c #2E2E2E",
"O.	c #111111",
"P.	c #9F9A5C",
"Q.	c #CAC276",
"R.	c #CBC074",
"S.	c #BFB563",
"T.	c #AF9839",
"U.	c #9C8053",
"V.	c #B4A68A",
"W.	c #B3A285",
"X.	c #BAA986",
"Y.	c #BEAC86",
"Z.	c #B39B50",
"`.	c #AD8936",
" +	c #905F08",
".+	c #966708",
"++	c #3E3306",
"@+	c #ABABAB",
"#+	c #D5D5D5",
"$+	c #C7C7C7",
"%+	c #B3B3B3",
"&+	c #999999",
"*+	c #787878",
"=+	c #4F4F4F",
"-+	c #343434",
";+	c #171717",
">+	c #A69C4F",
",+	c #C0B454",
"'+	c #BBAC45",
")+	c #A1802A",
"!+	c #C7BCA8",
"~+	c #C5B9A6",
"{+	c #C4B79E",
"]+	c #C3B494",
"^+	c #C3B38E",
"/+	c #BDAC80",
"(+	c #B49B6E",
"_+	c #AB8550",
":+	c #9A602C",
"<+	c #100904",
"[+	c #CAC9C7",
"}+	c #BBBBBB",
"|+	c #A2A2A2",
"1+	c #1F1F1F",
"2+	c #050505",
"3+	c #847A2E",
"4+	c #C0AF3B",
"5+	c #BEA427",
"6+	c #9D792E",
"7+	c #C8BCAB",
"8+	c #C8BDAB",
"9+	c #C8BCA4",
"0+	c #CABDA4",
"a+	c #C8B99A",
"b+	c #C4B18A",
"c+	c #BEAB7C",
"d+	c #B19565",
"e+	c #A06F36",
"f+	c #110B05",
"g+	c #CCCAC6",
"h+	c #C1BDB8",
"i+	c #8C8C8C",
"j+	c #676767",
"k+	c #272727",
"l+	c #0B0B0B",
"m+	c #8B7F2B",
"n+	c #C1AE2C",
"o+	c #9F803B",
"p+	c #CCC2B1",
"q+	c #CFC4B2",
"r+	c #D1C7B4",
"s+	c #D3C8B2",
"t+	c #D5CAB2",
"u+	c #E7E4DD",
"v+	c #DAD2BF",
"w+	c #B59A6A",
"x+	c #D0C5AF",
"y+	c #828282",
"z+	c #D7D5D3",
"A+	c #DED8CD",
"B+	c #9E9990",
"C+	c #535353",
"D+	c #131313",
"E+	c #95882E",
"F+	c #B59B15",
"G+	c #B8A886",
"H+	c #D4CCBB",
"I+	c #D8CFC1",
"J+	c #DAD2C1",
"K+	c #D9CFBE",
"L+	c #DED5C3",
"M+	c #D3CDC4",
"N+	c #502900",
"O+	c #BCA675",
"P+	c #E2DED6",
"Q+	c #EDECE9",
"R+	c #E7E2D7",
"S+	c #D7CEBE",
"T+	c #625A50",
"U+	c #A7982C",
"V+	c #AE8F13",
"W+	c #C5B89F",
"X+	c #D8CEC1",
"Y+	c #DDD6CA",
"Z+	c #DFD8CA",
"`+	c #DFD8C8",
" @	c #DED6C3",
".@	c #DCD4BF",
"+@	c #D5C8AA",
"@@	c #E1DAC9",
"#@	c #E0DACC",
"$@	c #434241",
"%@	c #BABABA",
"&@	c #E8E3D8",
"*@	c #E6DFD0",
"=@	c #DED6C1",
"-@	c #6C5745",
";@	c #BBA92D",
">@	c #956C05",
",@	c #D6CBB7",
"'@	c #DDD8CA",
")@	c #E1DCD1",
"!@	c #E2DDD0",
"~@	c #E4DFD2",
"{@	c #E6DFD4",
"]@	c #E5DFD3",
"^@	c #D8CCB3",
"/@	c #DFD6C1",
"(@	c #EBE7DF",
"_@	c #D6D5D1",
":@	c #7E7D7C",
"<@	c #EFEEE9",
"[@	c #E2DAC6",
"}@	c #DED3B9",
"|@	c #A88F64",
"1@	c #190000",
"2@	c #A2922B",
"3@	c #BEA827",
"4@	c #B59515",
"5@	c #966D08",
"6@	c #DFD9CC",
"7@	c #E6E1DA",
"8@	c #E9E5DF",
"9@	c #EAE7DF",
"0@	c #EAE5DE",
"a@	c #E2DCCC",
"b@	c #D6C9AD",
"c@	c #DCD2BD",
"d@	c #DDD8D2",
"e@	c #E9E7E3",
"f@	c #BCBBB9",
"g@	c #DFD4BA",
"h@	c #D9CCAC",
"i@	c #926A3E",
"j@	c #AE9E2E",
"k@	c #B08C0E",
"l@	c #A07C25",
"m@	c #E4DFD8",
"n@	c #EBE8E4",
"o@	c #ECE9E3",
"p@	c #E8E4DC",
"q@	c #E3DDCF",
"r@	c #DBD1BA",
"s@	c #D2C4A7",
"t@	c #BFAA7E",
"u@	c #AE9164",
"v@	c #67645E",
"w@	c #7B7A77",
"x@	c #9B9997",
"y@	c #585856",
"z@	c #BFBEBC",
"A@	c #ECE8E1",
"B@	c #896237",
"C@	c #AF9E2A",
"D@	c #BA9D1B",
"E@	c #AE8B0E",
"F@	c #A68631",
"G@	c #EAE5DF",
"H@	c #EAE8E1",
"I@	c #E6E2DA",
"J@	c #E2DCCE",
"K@	c #CFC2A6",
"L@	c #C1AF85",
"M@	c #AD8B5B",
"N@	c #925E2E",
"O@	c #0F0904",
"P@	c #030303",
"Q@	c #DBD9D8",
"R@	c #E7E4E0",
"S@	c #EAE8E3",
"T@	c #EBE6DF",
"U@	c #86582F",
"V@	c #AB9725",
"W@	c #B99F19",
"X@	c #A78105",
"Y@	c #BCAC75",
"Z@	c #EAE6DF",
"`@	c #D4CFC3",
" #	c #999182",
".#	c #251509",
"+#	c #6E6C67",
"@#	c #444342",
"##	c #F0EEEC",
"$#	c #7B4F27",
"%#	c #736310",
"&#	c #A38A18",
"*#	c #AA8B20",
"=#	c #CABC95",
"-#	c #DFD7C8",
";#	c #E8E5DE",
">#	c #D3CFC5",
",#	c #69655C",
"'#	c #050402",
")#	c #6F6843",
"!#	c #C1B796",
"~#	c #D5C9B0",
"{#	c #E1DBCD",
"]#	c #E9E4DD",
"^#	c #ABA89F",
"/#	c #1E1C1B",
"(#	c #946937",
"_#	c #7F7C74",
":#	c #D3CFC4",
"<#	c #D9D0BA",
"[#	c #9A9791",
"}#	c #999894",
"|#	c #E1DAC5",
"1#	c #A17441",
"2#	c #8D8A83",
"3#	c #D6D3CB",
"4#	c #DBD2C0",
"5#	c #E0D8C9",
"6#	c #E6E1D8",
"7#	c #BCB9B3",
"8#	c #373634",
"9#	c #9F9D9A",
"0#	c #D4C8AF",
"a#	c #D4C6A9",
"b#	c #DDD3B8",
"c#	c #9D6F3B",
"d#	c #9A9895",
"e#	c #D6D1C5",
"f#	c #D9CFBA",
"g#	c #DFD7C7",
"h#	c #ACABA7",
"i#	c #595958",
"j#	c #9D9996",
"k#	c #E1DED9",
"l#	c #9C8058",
"m#	c #AD9972",
"n#	c #D9CEB4",
"o#	c #B49664",
"p#	c #D4CEBE",
"q#	c #D9CEB8",
"r#	c #DFD9C7",
"s#	c #DDDBD7",
"t#	c #BDBBB7",
"u#	c #B7B6B4",
"v#	c #B5B4B3",
"w#	c #A8A7A4",
"x#	c #86827A",
"y#	c #BCB4A7",
"z#	c #C8BCA2",
"A#	c #DFD6C4",
"B#	c #C9B687",
"C#	c #290000",
"D#	c #090000",
"E#	c #E7E2D9",
"F#	c #EBE8E0",
"G#	c #E3DFD7",
"H#	c #D5CDBE",
"I#	c #5E5E5E",
"J#	c #B4B3AF",
"K#	c #E5E1DB",
"L#	c #D4C79C",
"M#	c #D1C192",
"N#	c #A99C76",
"O#	c #D9D4CA",
"P#	c #DCD1BD",
"Q#	c #DFD8C7",
"R#	c #EAE4DC",
"S#	c #D0C1A7",
"T#	c #AB8F63",
"U#	c #292827",
"V#	c #EFEEEB",
"W#	c #DAD5CE",
"X#	c #DCD3BF",
"Y#	c #DAD0B9",
"Z#	c #C5B490",
"`#	c #A07A45",
" $	c #B3A67D",
".$	c #A1A09F",
"+$	c #DBD6CF",
"@$	c #E0DAC8",
"#$	c #E6E1D6",
"$$	c #9F7644",
"%$	c #C9C8C8",
"&$	c #EFEDE9",
"*$	c #CEBE90",
"=$	c #AEACA9",
"-$	c #E5E0DA",
";$	c #E2DBCA",
">$	c #C2B08A",
",$	c #9B6D3E",
"'$	c #100A05",
")$	c #CBCAC8",
"!$	c #B8B6B2",
"~$	c #E1DAC7",
"{$	c #E4DFD4",
"]$	c #DDD4C2",
"^$	c #B59E76",
"/$	c #875C2E",
"($	c #0E0803",
"_$	c #DBDAD8",
":$	c #B7B4B1",
"<$	c #DFD7C4",
"[$	c #E5DFD1",
"}$	c #E3DFD3",
"|$	c #DCD4C3",
"1$	c #C7BBA5",
"2$	c #907C5E",
"3$	c #5A3B1E",
"4$	c #1B0200",
"5$	c #010000",
"6$	c #E7E6E5",
"7$	c #D0CABC",
"8$	c #BAB4A3",
"9$	c #9E9886",
"0$	c #978E78",
"a$	c #847C63",
"b$	c #645D46",
"c$	c #655D46",
"d$	c #E5E0D7",
"e$	c #D7CBB4",
"f$	c #D7CCB6",
"g$	c #C1B7A4",
"h$	c #8D8474",
"i$	c #655B4A",
"j$	c #322619",
"k$	c #312E27",
"l$	c #1A130C",
"m$	c #050000",
"n$	c #D2D0CC",
"o$	c #9A9892",
"p$	c #504E4B",
"q$	c #32312E",
"r$	c #272622",
"s$	c #181715",
"t$	c #171612",
"u$	c #948971",
"v$	c #A3987C",
"w$	c #6D5B3E",
"x$	c #1C0D00",
"                                                                                                ",
"                                                                                                ",
"                                                                                                ",
"                                                                                                ",
"                                                                                                ",
"                        . + @ #                                                                 ",
"                      $ % & * = -                                                               ",
"            ; > ,   ' ) ! ~ { ] ^ / ( _ : <                                                     ",
"            [ } | 1 2 3 4 5 6 7 8 9 0 a b c                                                     ",
"            d e f g h i j k l m n o p q r s t                                                   ",
"            u v w x y z A B C D E F G H I J K           L M N O P Q R S T U                     ",
"          V W X Y Z `  ...+.@.#.$.%.&.*.=.-.;.        >.,.'.).!.~.{.O ].^./.(._.:.:.            ",
"          <.[.}.|.1.2.3.4.5.6.7.8.I 9.I 0.a.b.        c.d.e.f.g.h.i.Q j.k.l.m.n.:.:.            ",
"          o.p.q.r.s.t.u.v.w.x.y.z.A.B.C.D.E.            F.!.G.H.I.J.K.L.M.N.O.:.:.:.            ",
"          P.Q.R.S.T.U.V.W.X.Y.Z.`. +.+++:.                @+#+$+%+&+*+=+-+;+:.:.:.:.            ",
"            >+,+'+)+!+~+{+]+^+/+(+_+:+<+:.                  [+}+|+j.k.U 1+2+:.:.:.:.            ",
"            3+4+5+6+7+8+9+0+a+b+c+d+e+f+                    g+h+i+j+M.k+l+:.:.:.:.:.            ",
"            m+n+I o+p+q+r+s+t+u+v+w+x+y+                    z+A+B+C+(.D+:.:.:.:.:.:.            ",
"            E+%.F+G+H+I+J+K+L+M+N+O+P+:.                  :.Q+R+S+T+1+:.:.:.:.:.:.:.            ",
"            U+*.V+W+X+Y+Z+`+ @.@+@@@#@$@                  %@e &@*@=@-@:.:.:.:.:.:.:.            ",
"            ;@9.>@,@'@)@!@~@{@]@^@/@(@_@:@                  <@&@*@[@}@|@1@:.:.:.:.:.            ",
"          2@3@4@5@,@6@7@8@9@0@a@b@b@c@d@e@f@                <@&@*@[@g@h@i@:.:.:.:.:.            ",
"          j@9.k@l@K+m@n@o@p@q@r@s@t@u@v@w@x@y@            z@A@&@*@[@g@h@B@:.:.:.:.:.            ",
"          C@D@E@F@J+G@H@I@J@K+K@L@M@N@O@P@            Q@R@S@T@&@*@[@g@h@U@:.:.:.:.:.            ",
"          V@W@X@Y@`+Z@I@`@ #.#:.:.:.:.                  +#@###&@*@[@g@h@$#:.:.:.:.:.            ",
"          %#&#*#=#-#;#>#,#'#:.                              e &@*@[@g@h@$#:.:.:.:.:.            ",
"            )#!#~#{#]#^#/#                                  e &@*@[@g@h@(#:.:.:.:.:.            ",
"            _#:#<##@I@[#:.                                }#e &@*@|#g@h@1#:.:.:.:.:.            ",
"            2#3#4#5#6#7#8#                                9#e ~@0#a#b#h@c#:.:.:.:.:.            ",
"            d#e#f#g#6#m@h#i#                              j#k#l#m#n#g@h@o#:.:.:.:.:.            ",
"              p#q#r#6#0@o@s#t#u#v#w#d#                    x#y#z#A#[@g@h@B#C#:.D#:.:.            ",
"              p#f#g#E#0@9@F#Z@H@Z@G#H#I#                  J#K#R+*@[@g@h@L#M#M#N#:.              ",
"              O#P#Q#E#R#9@0@R+q@g#S#T#U#                  [+V#&@*@[@g@h@L#M#M#N#:.              ",
"              W#X#@@E#R#9@T@{@a@Y#Z#`#f+                  [+V#&@*@[@g@h@L#M#M# $:.              ",
"            .$+$X#@$E#R#9@Z@#$a@r@Z#$$f+                  %$&$&@*@[@g@h@L#M#M#*$:.              ",
"            =$-$ @;$E#R#A@9@R+a@f#>$,$'$                  )$A@&@*@[@g@h@L#M#M#*$:.              ",
"            !$Z@ @~$E#R#9@T@{$]$K@^$/$($                  _$T@&@*@[@g@h@L#M#M#*$:.              ",
"            :$Z@=@<${$[$6#}$|$1$2$3$4$5$                  6$T@{$7$8$9$0$a$b$c$b$                ",
"            :$d$e$f$J+g$h$i$j$k$l$m$                      n$o$p$q$r$s$t$                        ",
"            u$v$w$x$:.:.:.                                                                      ",
"                                                                                                ",
"                                                                                                ",
"                                                                                                ",
"                                                                                                ",
"                                                                                                ",
"                                                                                                ",
"                                                                                                ",
"                                                                                                "};
