/* XPM */
static char * up_xpm[] = {
"17 17 257 2",
"  	c None",
". 	c #FFFFFF",
"+ 	c #FFFFCC",
"@ 	c #FFFF99",
"# 	c #FFFF66",
"$ 	c #FFFF33",
"% 	c #FFFF00",
"& 	c #FFFBF0",
"* 	c #FFCCFF",
"= 	c #FFCCCC",
"- 	c #FFCC99",
"; 	c #FFCC66",
"> 	c #FFCC33",
", 	c #FFCC00",
"' 	c #FF99FF",
") 	c #FF99CC",
"! 	c #FF9999",
"~ 	c #FF9966",
"{ 	c #FF9933",
"] 	c #FF9900",
"^ 	c #FF7C80",
"/ 	c #FF66FF",
"( 	c #FF66CC",
"_ 	c #FF6699",
": 	c #FF6666",
"< 	c #FF6633",
"[ 	c #FF6600",
"} 	c #FF5050",
"| 	c #FF33FF",
"1 	c #FF33CC",
"2 	c #FF3399",
"3 	c #FF3366",
"4 	c #FF3333",
"5 	c #FF3300",
"6 	c #FF00FF",
"7 	c #FF00CC",
"8 	c #FF0099",
"9 	c #FF0066",
"0 	c #FF0033",
"a 	c #FF0000",
"b 	c #F8F8F8",
"c 	c #F1F1F1",
"d 	c #EFD6C6",
"e 	c #EAEAEA",
"f 	c #E7E7D6",
"g 	c #E3E3E3",
"h 	c #DDDDDD",
"i 	c #D7D7D7",
"j 	c #D60093",
"k 	c #CCFFFF",
"l 	c #CCFFCC",
"m 	c #CCFF99",
"n 	c #CCFF66",
"o 	c #CCFF33",
"p 	c #CCFF00",
"q 	c #CCECFF",
"r 	c #CCCCFF",
"s 	c #CCCCCC",
"t 	c #CCCC99",
"u 	c #CCCC66",
"v 	c #CCCC33",
"w 	c #CCCC00",
"x 	c #CC99FF",
"y 	c #CC99CC",
"z 	c #CC9999",
"A 	c #CC9966",
"B 	c #CC9933",
"C 	c #CC9900",
"D 	c #CC66FF",
"E 	c #CC66CC",
"F 	c #CC6699",
"G 	c #CC6666",
"H 	c #CC6633",
"I 	c #CC6600",
"J 	c #CC33FF",
"K 	c #CC33CC",
"L 	c #CC3399",
"M 	c #CC3366",
"N 	c #CC3333",
"O 	c #CC3300",
"P 	c #CC00FF",
"Q 	c #CC00CC",
"R 	c #CC0099",
"S 	c #CC0066",
"T 	c #CC0033",
"U 	c #CC0000",
"V 	c #CBCBCB",
"W 	c #C0DCC0",
"X 	c #C0C0C0",
"Y 	c #B2B2B2",
"Z 	c #ADA990",
"` 	c #A6CAF0",
" .	c #A50021",
"..	c #A0A0A4",
"+.	c #99FFFF",
"@.	c #99FFCC",
"#.	c #99FF99",
"$.	c #99FF66",
"%.	c #99FF33",
"&.	c #99FF00",
"*.	c #99CCFF",
"=.	c #99CCCC",
"-.	c #99CC99",
";.	c #99CC66",
">.	c #99CC33",
",.	c #99CC00",
"'.	c #9999FF",
").	c #9999CC",
"!.	c #999999",
"~.	c #999966",
"{.	c #999933",
"].	c #999900",
"^.	c #9966FF",
"/.	c #9966CC",
"(.	c #996699",
"_.	c #996666",
":.	c #996633",
"<.	c #996600",
"[.	c #9933FF",
"}.	c #9933CC",
"|.	c #993399",
"1.	c #993366",
"2.	c #993333",
"3.	c #993300",
"4.	c #9900FF",
"5.	c #9900CC",
"6.	c #990099",
"7.	c #990066",
"8.	c #990033",
"9.	c #990000",
"0.	c #969696",
"a.	c #868686",
"b.	c #808080",
"c.	c #808000",
"d.	c #800080",
"e.	c #800000",
"f.	c #777777",
"g.	c #66FFFF",
"h.	c #66FFCC",
"i.	c #66FF99",
"j.	c #66FF66",
"k.	c #66FF33",
"l.	c #66FF00",
"m.	c #66CCFF",
"n.	c #66CCCC",
"o.	c #66CC99",
"p.	c #66CC66",
"q.	c #66CC33",
"r.	c #66CC00",
"s.	c #6699FF",
"t.	c #6699CC",
"u.	c #669999",
"v.	c #669966",
"w.	c #669933",
"x.	c #669900",
"y.	c #6666FF",
"z.	c #6666CC",
"A.	c #666699",
"B.	c #666666",
"C.	c #666633",
"D.	c #666600",
"E.	c #6633FF",
"F.	c #6633CC",
"G.	c #663399",
"H.	c #663366",
"I.	c #663333",
"J.	c #663300",
"K.	c #6600FF",
"L.	c #6600CC",
"M.	c #660099",
"N.	c #660066",
"O.	c #660033",
"P.	c #660000",
"Q.	c #5F5F5F",
"R.	c #555555",
"S.	c #4D4D4D",
"T.	c #424242",
"U.	c #393939",
"V.	c #33FFFF",
"W.	c #33FFCC",
"X.	c #33FF99",
"Y.	c #33FF66",
"Z.	c #33FF33",
"`.	c #33CCFF",
" +	c #33CCCC",
".+	c #33CC99",
"++	c #33CC66",
"@+	c #33CC33",
"#+	c #33CC00",
"$+	c #3399FF",
"%+	c #3399CC",
"&+	c #339999",
"*+	c #339966",
"=+	c #339933",
"-+	c #339900",
";+	c #3366FF",
">+	c #3366CC",
",+	c #336699",
"'+	c #336666",
")+	c #336633",
"!+	c #336600",
"~+	c #3333FF",
"{+	c #3333CC",
"]+	c #333399",
"^+	c #333366",
"/+	c #333333",
"(+	c #333300",
"_+	c #3300CC",
":+	c #330099",
"<+	c #330066",
"[+	c #330033",
"}+	c #330000",
"|+	c #292929",
"1+	c #222222",
"2+	c #1C1C1C",
"3+	c #161616",
"4+	c #111111",
"5+	c #0C0C0C",
"6+	c #080808",
"7+	c #040404",
"8+	c #00FFFF",
"9+	c #00FFCC",
"0+	c #00FF99",
"a+	c #00FF66",
"b+	c #00FF00",
"c+	c #00CCFF",
"d+	c #00CCCC",
"e+	c #00CC99",
"f+	c #00CC66",
"g+	c #00CC33",
"h+	c #00CC00",
"i+	c #0099FF",
"j+	c #0099CC",
"k+	c #009999",
"l+	c #009966",
"m+	c #009933",
"n+	c #009900",
"o+	c #008080",
"p+	c #008000",
"q+	c #0066FF",
"r+	c #0066CC",
"s+	c #006699",
"t+	c #006666",
"u+	c #006633",
"v+	c #006600",
"w+	c #0033CC",
"x+	c #003399",
"y+	c #003366",
"z+	c #003333",
"A+	c #003300",
"B+	c #0000FF",
"C+	c #0000CC",
"D+	c #000099",
"E+	c #000080",
"F+	c #000066",
"G+	c #000033",
"H+	c #000000",
"                                  ",
"              Y a.!.              ",
"              A.^+R.Y             ",
"          Y A.]+]+^+B.Y           ",
"        Y A.F.F.F.]+^+A.Y         ",
"      Y z.z.^.^.z.G.]+]+A.!.      ",
"    Y z.y.r * x /.G.]+]+]+]+!.    ",
"  Y z.^.r . . x ^.F.G.]+]+^+^+!.  ",
").z.E.^.x * x '.^.F.G.]+^+^+^+^+f.",
"Y ).).X ).'.^.^.z.F.G.]+a.!.!.!.!.",
"          ^.y.z.z.F.G.]+!.s       ",
"          z.z.F.F.F.G.]+!.s       ",
"          z.F.F.F.G.]+]+!.s       ",
"          z.F.F.G.]+]+^+!.s       ",
"          !.z./.(.A.A.B.!.s       ",
"                                  ",
"                                  "};
