/* XPM */
static char * yqfile_open_xpm[] = {
"19 13 17 1",
" 	c None",
".	c #000000",
"+	c #3F3F3F",
"@	c #FFFFFF",
"#	c #BFBFBF",
"$	c #EFEFEF",
"%	c #909090",
"&	c #303030",
"*	c #404040",
"=	c #9F9F9F",
"-	c #6F6F6F",
";	c #5F5F5F",
">	c #707070",
",	c #505050",
"'	c #202020",
")	c #808080",
"!	c #3F0000",
"                   ",
"                   ",
"          .+.      ",
"    ...@.+###.     ",
"  .+#$%&###@##.    ",
"  .*#@$%=@##@##.   ",
"   .*#@$%=@##@##.  ",
"    .*#@$%=@##@#+  ",
"     .*#@-&=@#;>,. ",
"      .'.**&,>)&.  ",
"          !,)&.    ",
"           ..      ",
"                   "};
