/* XPM */
static char * yqfile_xpm[] = {
"18 18 25 1",
" 	c None",
".	c #000000",
"+	c #909090",
"@	c #C0C0C0",
"#	c #30306F",
"$	c #303030",
"%	c #606060",
"&	c #0000FF",
"*	c #505050",
"=	c #404040",
"-	c #00003F",
";	c #00007F",
">	c #808080",
",	c #6F3030",
"'	c #B0B0B0",
")	c #3F0000",
"!	c #BF4040",
"~	c #A0A0A0",
"{	c #7F0000",
"]	c #7F007F",
"^	c #3F003F",
"/	c #BF00BF",
"(	c #202020",
"_	c #5F205F",
":	c #7F407F",
"            ....  ",
"           .+@#.  ",
"      $%. .+@#&.  ",
"     $@*= -;-&&.  ",
"    $@*>=$-;-&&.  ",
"   .%$>>*,;&;&&.  ",
"   .'%>=)!;&;&&.  ",
"   .~%>={!;&;&&.  ",
"   .'%>={!;&;&&.  ",
"  .]~%>={!;&;&&.  ",
"  ]^'%>={!;&;&&.  ",
" ./(@%>={!;&;&&.  ",
" ]]_@%>={!;&;&&.  ",
"./:^@%>({!-;-&-   ",
"^]^.@%(.{);&;-    ",
".. ... .. ...     ",
"        >         ",
"                  "};
