/* XPM */
static char * yqfile_close_xpm[] = {
"18 17 14 1",
" 	c None",
".	c #000000",
"+	c #3F0000",
"@	c #BF0000",
"#	c #FF0000",
"$	c #303030",
"%	c #7F0000",
"&	c #9F6060",
"*	c #5F2020",
"=	c #202020",
"-	c #606060",
";	c #909090",
">	c #505050",
",	c #808080",
"                  ",
"                  ",
"                  ",
"         ..       ",
"       .+@@.      ",
"     .+@###@.     ",
"    $%######@.    ",
"    %&@######@.   ",
"    +#&@######%.  ",
"     +#&@###@*=   ",
"      +#&@@*-;>.  ",
"       +#>-;,$.   ",
"        +>,$.     ",
"         ..       ",
"                  ",
"                  ",
"                  "};
