/* XPM */
static char * zu_xpm[] = {
"19 19 12 1",
" 	c None",
".	c #000000",
"+	c #808000",
"@	c #808080",
"#	c #C0C0C0",
"$	c #0000FF",
"%	c #FFFFFF",
"&	c #00FF00",
"*	c #008000",
"=	c #800000",
"-	c #00FFFF",
";	c #FF0000",
"                   ",
"                   ",
"      ......       ",
"     ++++@....     ",
"   ++##@@++...     ",
"  +##@@++.+##.     ",
"  +#@@+###.#@.@@   ",
" +#@++####.#$.% .  ",
" +#+.####$.@@@. .  ",
" +@+.######.@.& .  ",
" +@++.####.@@.# .  ",
"  +@+#####.@@.# .  ",
"   +.####@...*& .  ",
"   @%.#....%#%# .  ",
"   @$$##.===&*& .  ",
"   $--$$$$;;=%# .  ",
"  $-$$$$$$$...@ .  ",
"  ..........#@# .  ",
"                   "};
