/* XPM */
static char * zu_close_xpm[] = {
"19 17 15 1",
" 	c None",
".	c #000000",
"+	c #FFFF7F",
"@	c #7F7F7F",
"#	c #7F7F00",
"$	c #3F3F3F",
"%	c #7F7F3F",
"&	c #BFBF7F",
"*	c #BFBF3F",
"=	c #AFAF6F",
"-	c #3F3F00",
";	c #FFFFBF",
">	c #DFDF9F",
",	c #EFEFAF",
"'	c #6F6F6F",
"                   ",
"                   ",
"       .+.@#.      ",
"      $+++%&@..    ",
"     .*++%%%@#.    ",
"   .%%@%$+++%=@    ",
"   %-;;%*++%&>@    ",
"   %%%%%%%%;;>@    ",
"   %%%-;;;;;,>@    ",
"   %%%%;;;;;>>@    ",
"   %%%%;;;;;>>@    ",
"   %%%%;;;;>>>@    ",
"   %%%%;;;;>>>@    ",
"   %%%%;;;;>>>$    ",
"   %%%%;;,;>'.     ",
"   .$%%;;>@.       ",
"     %%;@.         "};
