/* XPM */
static char * zu_open_xpm[] = {
"19 17 16 1",
" 	c None",
".	c #000000",
"+	c #FFFF7F",
"@	c #606060",
"#	c #7F7F00",
"$	c #3F3F3F",
"%	c #EFEF6F",
"&	c #6F6F30",
"*	c #BFBF7F",
"=	c #7F7F3F",
"-	c #AFAF30",
";	c #DFDF60",
">	c #7F7F7F",
",	c #3F3F00",
"'	c #FFFFBF",
")	c #6F6F6F",
"                   ",
"      .+.@#.       ",
"     $++%&*= .     ",
"    .-%;&==#>>     ",
"  .&&=&,'''''>     ",
"  &$++=*'''''>     ",
"  &==='''''''>     ",
"  &==''''''''>     ",
"  &==''''''''>  ., ",
"  &==''''''''>.&-. ",
"  &=='''''''=&;-.  ",
"  &=='''''=&;;-.   ",
"  &=='''=&;;;&.    ",
"  &=='');;;&.      ",
"  .,=');;&.        ",
"    =);&.          ",
"    .&.            "};
